<?xml version="1.0" ?><!DOCTYPE svg  PUBLIC '-//W3C//DTD SVG 1.1//EN'  'http://www.w3.org/Graphics/SVG/1.1/DTD/svg11.dtd'><svg enable-background="new 0 0 512 512" id="Layer_1" version="1.1" viewBox="0 0 512 512" xml:space="preserve" xmlns="http://www.w3.org/2000/svg" xmlns:xlink="http://www.w3.org/1999/xlink"><g><path d="M276.3,217.1c6.8-8.4,11.8-16.3,18.4-23c12.4-12.7,26.8-21.7,43.6-27.4c18.6-6.3,37.8-7.2,56.8-5.3   c30.8,2.9,57.7,14.9,78.6,38.4c9.8,11,17.1,23.6,22.4,37.3c4.1,10.7,7.3,21.5,9.2,32.8c1.6,9.7,3.6,19.4,3.6,29.3   c0.1,68.5,0.1,137,0.2,205.5c0,3.4-0.8,4.5-4.3,4.5c-31.3-0.1-62.7-0.2-94,0c-4.5,0-5.1-1.6-5.1-5.5c0.1-59.8,0.1-119.7,0.1-179.5   c0-11-0.7-22.1-3.9-32.5c-5.4-17.6-16.3-30.4-34.2-36.9c-15-5.4-30.2-6.4-45.5-2.5c-16.9,4.3-28.8,15.4-37.2,30.4   c-4.7,8.4-6.6,17.2-7.6,26.8c-0.7,7.3-0.9,14.5-0.9,21.8c-0.1,57.3-0.1,114.7,0.1,172c0,4.9-1.3,6-6,5.9c-30.3-0.2-60.7-0.3-91,0   c-5.4,0.1-6.1-1.7-6.1-6.4c0.2-105.7,0.2-211.3,0.2-317c0-12.5-0.1-12.5,12.4-12.5c28.5,0,57,0.1,85.5-0.1c4,0,5,1.2,4.9,5.1   C276.2,190.7,276.3,203.1,276.3,217.1z" fill="#0177B5"/><path d="M5.3,342.5c0-53.7,0.1-107.3-0.1-161c0-4.5,1.1-6,5.8-6c30.8,0.2,61.7,0.2,92.5,0c4.6,0,5.7,1.5,5.7,6   c-0.1,107.1-0.1,214.3,0,321.4c0,4.7-1,6.2-6,6.1c-30.8-0.2-61.7-0.2-92.5,0c-4.4,0-5.5-1.2-5.5-5.6C5.4,449.8,5.3,396.2,5.3,342.5   z" fill="#0378B5"/><path d="M55.9,4.7c33.3-1.1,52.9,23.5,53,52.6c0,29.9-21.1,52.1-53.6,52.2C23.8,109.6,2.7,87.8,2.5,56.9   C2.3,27.6,23.7,3.7,55.9,4.7z" fill="#0378B5"/></g></svg>