<?xml version="1.0" encoding="utf-8"?>
<!-- Generator: Adobe Illustrator 16.0.0, SVG Export Plug-In . SVG Version: 6.00 Build 0)  -->
<!DOCTYPE svg PUBLIC "-//W3C//DTD SVG 1.1//EN" "http://www.w3.org/Graphics/SVG/1.1/DTD/svg11.dtd">
<svg version="1.1" id="Layer_1" xmlns="http://www.w3.org/2000/svg" xmlns:xlink="http://www.w3.org/1999/xlink" x="0px" y="0px"
	 width="784.082px" height="173.761px" viewBox="0 0 784.082 173.761" enable-background="new 0 0 784.082 173.761"
	 xml:space="preserve">
<metadata><?xpacket begin="﻿" id="W5M0MpCehiHzreSzNTczkc9d"?>
<x:xmpmeta xmlns:x="adobe:ns:meta/" x:xmptk="Adobe XMP Core 5.3-c011 66.145661, 2012/02/06-14:56:27        ">
   <rdf:RDF xmlns:rdf="http://www.w3.org/1999/02/22-rdf-syntax-ns#">
      <rdf:Description rdf:about=""
            xmlns:xmpMM="http://ns.adobe.com/xap/1.0/mm/"
            xmlns:stRef="http://ns.adobe.com/xap/1.0/sType/ResourceRef#"
            xmlns:stEvt="http://ns.adobe.com/xap/1.0/sType/ResourceEvent#">
         <xmpMM:DerivedFrom rdf:parseType="Resource">
            <stRef:instanceID>xmp.iid:287F2BA7AB2DE811BE78A053C6CC9028</stRef:instanceID>
            <stRef:documentID>xmp.did:287F2BA7AB2DE811BE78A053C6CC9028</stRef:documentID>
            <stRef:originalDocumentID>xmp.did:277F2BA7AB2DE811BE78A053C6CC9028</stRef:originalDocumentID>
         </xmpMM:DerivedFrom>
         <xmpMM:DocumentID>xmp.did:297F2BA7AB2DE811BE78A053C6CC9028</xmpMM:DocumentID>
         <xmpMM:InstanceID>xmp.iid:297F2BA7AB2DE811BE78A053C6CC9028</xmpMM:InstanceID>
         <xmpMM:OriginalDocumentID>xmp.did:277F2BA7AB2DE811BE78A053C6CC9028</xmpMM:OriginalDocumentID>
         <xmpMM:History>
            <rdf:Seq>
               <rdf:li rdf:parseType="Resource">
                  <stEvt:action>saved</stEvt:action>
                  <stEvt:instanceID>xmp.iid:277F2BA7AB2DE811BE78A053C6CC9028</stEvt:instanceID>
                  <stEvt:when>2018-03-22T16:33:10+08:00</stEvt:when>
                  <stEvt:softwareAgent>Adobe Illustrator CS6 (Windows)</stEvt:softwareAgent>
                  <stEvt:changed>/</stEvt:changed>
               </rdf:li>
               <rdf:li rdf:parseType="Resource">
                  <stEvt:action>saved</stEvt:action>
                  <stEvt:instanceID>xmp.iid:297F2BA7AB2DE811BE78A053C6CC9028</stEvt:instanceID>
                  <stEvt:when>2018-03-22T16:44:16+08:00</stEvt:when>
                  <stEvt:softwareAgent>Adobe Illustrator CS6 (Windows)</stEvt:softwareAgent>
                  <stEvt:changed>/</stEvt:changed>
               </rdf:li>
            </rdf:Seq>
         </xmpMM:History>
      </rdf:Description>
      <rdf:Description rdf:about=""
            xmlns:dc="http://purl.org/dc/elements/1.1/">
         <dc:format>image/svg+xml</dc:format>
      </rdf:Description>
      <rdf:Description rdf:about=""
            xmlns:xmp="http://ns.adobe.com/xap/1.0/"
            xmlns:xmpGImg="http://ns.adobe.com/xap/1.0/g/img/">
         <xmp:CreatorTool>Adobe Illustrator CS6 (Windows)</xmp:CreatorTool>
         <xmp:CreateDate>2018-03-22T16:44:16+08:00</xmp:CreateDate>
         <xmp:MetadataDate>2018-03-22T16:44:16+08:00</xmp:MetadataDate>
         <xmp:ModifyDate>2018-03-22T16:44:16+08:00</xmp:ModifyDate>
         <xmp:Thumbnails>
            <rdf:Alt>
               <rdf:li rdf:parseType="Resource">
                  <xmpGImg:width>256</xmpGImg:width>
                  <xmpGImg:height>64</xmpGImg:height>
                  <xmpGImg:format>JPEG</xmpGImg:format>
                  <xmpGImg:image>/9j/4AAQSkZJRgABAgEASABIAAD/7QAsUGhvdG9zaG9wIDMuMAA4QklNA+0AAAAAABAASAAAAAEA&#xA;AQBIAAAAAQAB/+4ADkFkb2JlAGTAAAAAAf/bAIQABgQEBAUEBgUFBgkGBQYJCwgGBggLDAoKCwoK&#xA;DBAMDAwMDAwQDA4PEA8ODBMTFBQTExwbGxscHx8fHx8fHx8fHwEHBwcNDA0YEBAYGhURFRofHx8f&#xA;Hx8fHx8fHx8fHx8fHx8fHx8fHx8fHx8fHx8fHx8fHx8fHx8fHx8fHx8fHx8f/8AAEQgAQAEAAwER&#xA;AAIRAQMRAf/EAaIAAAAHAQEBAQEAAAAAAAAAAAQFAwIGAQAHCAkKCwEAAgIDAQEBAQEAAAAAAAAA&#xA;AQACAwQFBgcICQoLEAACAQMDAgQCBgcDBAIGAnMBAgMRBAAFIRIxQVEGE2EicYEUMpGhBxWxQiPB&#xA;UtHhMxZi8CRygvElQzRTkqKyY3PCNUQnk6OzNhdUZHTD0uIIJoMJChgZhJRFRqS0VtNVKBry4/PE&#xA;1OT0ZXWFlaW1xdXl9WZ2hpamtsbW5vY3R1dnd4eXp7fH1+f3OEhYaHiImKi4yNjo+Ck5SVlpeYmZ&#xA;qbnJ2en5KjpKWmp6ipqqusra6voRAAICAQIDBQUEBQYECAMDbQEAAhEDBCESMUEFURNhIgZxgZEy&#xA;obHwFMHR4SNCFVJicvEzJDRDghaSUyWiY7LCB3PSNeJEgxdUkwgJChgZJjZFGidkdFU38qOzwygp&#xA;0+PzhJSktMTU5PRldYWVpbXF1eX1RlZmdoaWprbG1ub2R1dnd4eXp7fH1+f3OEhYaHiImKi4yNjo&#xA;+DlJWWl5iZmpucnZ6fkqOkpaanqKmqq6ytrq+v/aAAwDAQACEQMRAD8AT0TRNR1vUY9O06MS3UoZ&#xA;kRmCCiAsd2IHQZuZzERZddGJJoMm/wCVO+ff+WKP/kfF/wA1ZT+Zh3tngyd/yp3z7/yxR/8AI+L/&#xA;AJqx/Mw718GTv+VO+ff+WKP/AJHxf81Y/mYd6+DJ3/KnfPv/ACxR/wDI+L/mrH8zDvXwZO/5U759&#xA;/wCWKP8A5Hxf81Y/mYd6+DJ3/KnfPv8AyxR/8j4v+asfzMO9fBkkK6Ve6T5og06+QR3VvcwrKgIY&#xA;AllYbio6HLOISjYYVRp9S5qHYPPde/PLyXoesXek3qXhurNzHMY4kZOQFdiXHj4YaRaEt/8AnIf8&#xA;vJZkjdry3VjQzSQAovueDO33DGlt6JbanYXenLqNpMtzZSR+rHNEQysgFagjAl5v/wBDGfl//vu/&#xA;/wCRKf8AVTDSLRmi/nv5J1jVrTS7SO9FzeyrBCZIkC8nNByIkO2NLb0G5ura1t5Lm6lSC3hUvLNI&#xA;wRFUbksxoAMCXm2p/wDOQ/5fWVyYIfrmoKtQZrWFfTqPAzPCT9Aw0i058pfm95J8z3C2lldNbX8m&#xA;0dneKIpHPghBZGPsGrjS2nHnDzhpPlPSRqmqCVrZpVgAgUO3JwSNiV2+HAlhX/Qxn5f/AO+7/wD5&#xA;Ep/1Uw0i2T+T/wAzfKPm2V4NKumF5GvNrOdTHLx/mUbqwHfiTTBS2o+dPzT8s+T7+Cx1ZLlpriL1&#xA;4zBGrrx5FdyWXeq4aW2TaVqVvqel2epWwYW99BHcwhxRuEyB15AE0NGwJYj5t/OHyn5W1htJ1NLp&#xA;rpUSQmGNXTi4qNy6/qw0i0y87fmFoPk2K0l1dZ2W9Z1h9BFc1jAJ5VZf5sC2gtS/Njyvp/lbTvM0&#xA;6XJ07U3MdsFjUy8l5V5LzAH92e+GltIf+hjPy/8A993/APyJT/qpjS2jNF/PfyTrGrWml2kd6Lm9&#xA;lWCEyRIF5OaDkRIdsaW1uq/n35H0zVLzTbmO9NxYzyW0xSFCvOFyjcSZBUVXGltC/wDQxn5f/wC+&#xA;7/8A5Ep/1UxpbZN5y/Mvy75Ri0+XVVuGXUlka39BFc0iCFuVWWn96MFLbGf+hjPy/wD993//ACJT&#xA;/qphpbZp5T87+W/Ndo9xot0JvRIE8DApLGT05I3Y02I2wJeK/k7/AMp7Zf8AGOf/AJNNmz1P0Fws&#xA;P1PY9d/MbyVoF+dP1fVI7S8Cq5hZJGPFuhqisN8w8emnMXEbOWZgc0v/AOVz/ll/1fYv+Rc//VPJ&#xA;/ksv81HiR70TYfmt+Xd/OsFvr1t6rEBRKWhBJ6AGUIMjLSZBziVGSPeyvruMx2aQ+YvPnlLy5cRW&#xA;2t6ilnPMnqRRsrsSleNfgVu4y7HgnMXEWxMwObflzzx5U8ySzRaJqKXsluoeZFV1KqxoD8ar4dsG&#xA;TBOH1ClEgeTxXzx/5NS5/wCYy3/4jHmdi/u/g4mT630Pmsc18qea7C11H88JtPu1L2t5rFvbzoCV&#xA;JjlkRGFRuNjkmPVmX5vflV5C8ueUZdT00vZajHJGtvC8zSevzdVdOMhY/ChL/D4YAVITP/nHm7vJ&#xA;fImtW8pLWtvPJ9WrWil4QzqD4Voae/viUh5N+Vuj+WtX82R2fmN0j0wwyszSTegvNQOPx1X9eEsQ&#xA;948vflv+UMGs2t1oskM2pWjie3WK+MzBozXlwEjVA+WC2VPP/wDnInzle3OtxeVLWQrZ2ixy3kad&#xA;ZJ5BzRWp1CIVIHifYYQgsh8o/wDOOehJpcU3mWWebUplDSW8DiOKGu/CoBZmHc1p7d8FppIPOH/O&#xA;PGr2up2snlGVri0mekguZFSS2Ybhy4C8k+Q5D3xtFMi/Om01ez/KLTrXWLpb3U4bq3S5ukBCyMEk&#xA;Fd9yaUqe532xCSx/8lfy08neaPKl3qOt2zTXMN9JArrNJGBEsMTioVgOrtviSgBhstpa+W/zdgtP&#xA;LVybqC01G3jtJQwYt6hQPEWX7VC7Rnxwqyj/AJyY/wCUs0v/AJgB/wAnpMQpe4eQf+UF8uf9suy/&#xA;6h0yLIPnn/nIT/yY03/MLb/8ROSDEs0/5ye/3h8v/wDGW5/4jHgCSyDyL5N0DzV+U3l2z1qBp4IB&#xA;JNGqyPGQ/qyrWqEHo2Kh5D+dflHQvK3mq10/RYWgtZbGO4dGdpCZGmlQmrknogwhBe1eVPyf8h2a&#xA;aTrUFlIuoRJBdJIZ5SBLxD14lqde2C008Kv7PTL384r601RlXTp9duI7tmf01ETXThqvUcdu9cKH&#xA;scH5V/kdcTJBBNbzTSELHFHqJZmY9AqiSpOC00GN/wDOTsaxx+V40FFQXqqPYC3AxCCjPIH5ReQN&#xA;Z/L/AE/WNVhkS6uIpGuLsXDxheMrryoT6YoF7jG0gMG/JqaWw/Nq1tNNmNxaSvdWzyrsJbdY3ZXP&#xA;tWNXwlAT/wDJ3/lPbL/jHP8A8mmzY6n6C4mH6lb86Py4866953l1DSNLe7s2t4UWZXiUclBDCjMp&#xA;2y3RanHDHUju25IEnZgv/KmfzN/6sUv/ACMg/wCqmZX5zF/Oa/Dl3Me1/wAseYPL1yltrVjLZTSD&#xA;lGJBs4GxKsKq1O9Dl2PLGYuJtiYkc3tn/OOnnq/vPrPlW/laZbWH6xp0jmrLGrBHiqew5qV8N+1M&#xA;1naOAD1j4t+GXRv8+PIXm7zH5i0+70XTnvLeGz9KSRXjWj+q7Uo7KejDBoM8IRIka3XLAk7K35Ce&#xA;RfNnlvV9Vn1vT3sop7dEhZ3jbkwepHwM3bBr88JgcJtcUSDukPnj/wAmpc/8xlv/AMRjxxf3fwac&#xA;n1vofNY5r5K8/wCmS6r+b2o6XC6xzX+pR2sbvXirTMiAtSpoC2SYlJ/MXlG68r+ZxouvMY4keNpL&#xA;m3HPnbud5Yg3DltXY9xTFD6q8s6FoGieTI7PQSH05rdpo7ivJpjIlfVZtqlv7MiyfLHkHydL5v8A&#xA;MKaNHdLZs8UkvrMhkH7sVpxBXr88kxD3T8ufySuvKHmVNZk1ZLxUiki9FYTGf3gpXkXbp8sBLIB5&#xA;j+dNtcaR+a8+oOhaOY2t7By/aVEVCK/68TDCEF9K6Frem65pVvqmmzLNaXKB0YEVBI3Vh2ZehHY5&#xA;FklXmr8xPKnla6s7bWLv0prxqKqKXMaUP7yQL8SpXatOvyNFbYV+f1/Zah+WdteWM8d1aTX0LRTx&#xA;MHRhwlGzDbrhCC8Q07yDrWo+S77zZaGOSy0+4MFzbjl6wVUR2kApQqvqiu/icLGme/8AOO2geVtQ&#xA;1e41C7kaTXdNpJZ2bUEYjYcfXHd2VjTwWoO5pRKQ1/zkyrDzTpTU+E2NAe1RM9f14hS9r/LueGfy&#xA;F5deFxIg061jLLuOUcKo6/NWUg5Esg+ePz9uYJ/zIuxE4cwwQRS8TWjhKlfmOWSDEs5/5ye/3h8v&#xA;/wDGW5/4jHgCSzv8mv8AyWehf8YpP+T8mJUPH/8AnJX/AJTqx/7ZcX/URPhCC+hdA/44Wm/8wsP/&#xA;ACbXIsnyhrejNrf5sappCyiBr/W7mATEcgpe6ccqVFaZJg9U8r/8483mi+YtO1d9bjmWwuI5zCLd&#xA;lLem1eNfUNK4LZUg/wDnKH/pmf8Ao+/7F8QgvLdS8g61Y+T9O81kpNpmoMyfu+ReFgxVfUBAFGKm&#xA;hGFFPYv+cdNA8r/omfXLaRp9dqba7WSg+rqTyAjUdpAAeR8Kbb4CyDHvyd/5T2y/4xz/APJps2Wp&#xA;+guHh+p9D5rHNYHr350+StC1a50nUjdQ3tq3CVPQJG4qGUg7hgQQcy8einMWKprOQA08d/Ov8z9D&#xA;84DTrPR4ZDBYs8j3cyhGZpABwRak8RTevU/LNlotLLHZl1acsxLkif8AnG3Sbi485XepBT9WsbRk&#xA;eTt6k7AIv0qrn6Mj2lMCAHeU4Ruyb8+fP3m7y55h0600XUXsreW09WRESNuTmVlqS6seijKNBp4T&#xA;iTIXuyyzIOyt+QnnvzZ5j1bVbfW9Qa9iggjkhV0jXixcgkFFXtg1+CEADEUuKRJ3SHzx/wCTUuf+&#xA;Yy3/AOIx44v7v4NOT630Pmsc14Bqn5dedJvzkTXY9LdtJGr21ybrnHx9FJUZnpy5bBT2w2xpn35y&#xA;fl23m3QFmsIw2uafV7PoplQ/bhLGg36rXv8AM4gpISj8nrLz/pOj3nlzzBpcsVkscj6bcs8bBGb7&#xA;UJ4uxoSeS7bb+2JUPKdK/LH84NJuxeaZpl1Z3QUqJoZokfi3UVEnfDaKZj5Q0n894/NGlSaw+onS&#xA;1uYzeiW6R09IMOfJRIaintgXd6d+ZP5cab520pIJX+raja8msbwCvEsN0cd0agr3/igpIeEN+WH5&#xA;xeWrqSPSo7tVY0+s6ZclUkA7/AyP/wAEow2iky8sfkL501vUBeeZ3bT7V2D3Eksgmu5R34gF6E9K&#xA;udvA42tPS/za8k3t5+Xln5f8s2BlFncQejaxlV4xRo4Jq5Wu7b71OAJLf5H+VNY0Lybfabr1kbaW&#xA;4vpZPq8hRw0LwQpU8SwoSrCmJUPPb78rvP3lHz7+lfJ9i15YQy+tZsHjA9N/t28gZ1alCV9xv1w2&#xA;inpf5j/l4PP3l6zm4nTNctk9S2WahCmQAyQTFOW1R9pa0OAFJDx618m/nn5bWXT9MivoLZySRZzq&#xA;0RJ6svFvhJ8djhRun35ffkRr82sw6v5uAt7eGQTmzMglnncHkPUZSyqpO7b1PTbrgtQGWfn55P8A&#xA;MnmSz0ZNEsmvWtpJzOFZF4h1Tj9tl68TiEll35YaTqOkeQ9J07UYTb3tvG6zQsQSpMrsN1JHQ4Co&#xA;eZ/nr5A84eYvNtpe6Lpr3lrHYRwvKrxqBIs0zFaOyno4wgoIe06PBLBpNlBMvGWK3iSRdjRlQAjb&#xA;3wMnzd5l/LL8zT531bWNK0udQ+pXN1ZXccsStRp2eN1+MEbEHJWxpEfoX/nIz/fmqf8ASWn/AFUx&#xA;2Xdmf56eTPNfmS28uDSLF72W0S5+ucWRSrSCDjXmy1qUbpgCSyvyV5RZvyus/LPmG1KM9vLDd2zF&#xA;SV5SuykFSRyFQwI6HFXl/kzyR+Z3kTzs9xZaZJqGkeoYLp4niC3FsW2dVZwQ6j4h77dK4oa/J3/l&#xA;PbL/AIxz/wDJps2Wp+guJh+p9D5rHNeSfn9+X36Z0YeY9PirqWlofrSqN5bUVZvmYvtD2r7ZsdBq&#xA;OGXCeR+9pywsW+cbBbJr23W+d47JpFFzJEA0ixk/EVU0BIHTN1K625uMH2X5I8t+W9A8v29t5fAa&#xA;wmUTi65c2nLqD6rP+1yFPbwzms+SU5XLm5sYgDZ4d/zk1/ylml/8wA/5PSZtOzPoPvaM/NEf84xf&#xA;8d3Wv+YWP/k5g7T+ke9cHN3nj/yalz/zGW//ABGPKcX938GvJ9b6HzWOa+dfMX5gec7f83ZNJh1a&#xA;ePTRqkEAtVI4emzoCvToQckxtmH/ADkD5p8w6BZ6K+jX0ti1xJOJjEQOQVU41qD0qcASUr/JP83b&#xA;7Ur5vL3mS7M91cHlpt5LQMzd4GIArXqn3eGJCgvRPzS1O/0vyDq9/p87W15BGhhnT7Skyopp9BwB&#xA;S8o/LvzZ+YXmDyf5x9G/ub7WLZLH9GUKmRGkkk9ThsOqpvhKAxjXfNH526BHFJrN7qFlHOSsTy8Q&#xA;GZRUioB8cK7q+j61+fGs2K3+l3GpXVm5ZUnTjxJU0alQOhxXdP8A85fO/nXQdc0izstUuLMvpFvL&#xA;dRqVHKcySq7NtTkeIrTAFJSm2uP+chrm3iuYH1OSCZFkikHCjI4qpHzBw7Lu9El1Pzvpf5I3t/q8&#xA;9xbeZIAxM8tPWUG5Cr02+wcCeiD/AOcfPNnmPzB+n/0zfy331b6p6HqkHh6nr8qUA68BiVD2DAl2&#xA;KuxV2KuxV2KuxV2KuxV2KuxV2Kvnj8nf+U9sv+Mc/wDyabNnqfoLhYfqfQ+axzXEBgVYVB2IPQjF&#xA;Xyb+cn5fnyl5lZ7SOmjakWmsSOkZr+8h/wBgT8P+SR750Oj1HiR3+oOJkhRZp/zj5+Y/oyDyfqkv&#xA;7uQltHlY7KxqXgr/AJX2k96juMxe0NNfrHxZ4Z9Eu/5ya/5SzS/+YAf8npMn2Z9B96M/NEf84xf8&#xA;d3Wv+YWP/k5g7T+ke9cHN3nj/wAmpc/8xlv/AMRjynF/d/BryfW+h81jmvlXzV/5PKX/ALbNv/yc&#xA;jyTHqzv/AJye/wB4fL//ABluf+Ix4AkvLL/yVqVh5L0PznZO7W120i3Lrs1vPFcyRxsCNwrKgoez&#xA;fMYWL1G4/MaLzf8Akrrkd04GuWEMKX0fT1F9dAsyjwb9rwb5jBTK9lL/AJxe/wCmm/6Mf+xjEoCO&#xA;/wCcm/8AjhaL/wAxUn/JvEJLJvyE/wDJZ6f/AMZbn/k+2JUPLf8AnJX/AJTqx/7ZcX/URPhCCi9J&#xA;/wCcj77TtKstPGhRSCzgigEn1hl5ekgTlT0zStMaW3o35iao2rfkpdaq0YhbULC0ujEDyCGZopON&#xA;aCtOVMASeTDP+cXv+mm/6Mf+xjEoD3bAydirsVdirsVdirsVdirsVdirsVdir54/J3/lPbL/AIxz&#xA;/wDJps2ep+guFh+p9D5rHNdiqV+Y/K+g+ZNP/R+t2i3loHEioWdCHXoyvGVYdexyzHllA3E0UGIP&#xA;NjUP5I/ljDKk0OjtHLEweORbu8DKymoIIm2IOXHW5T1+wMPCim3mb8uvJ3me6hutc0/65cQR+lFJ&#xA;608dEqWpSJ0B3PfIYtROAqJplKAPNd5Y/L7yh5Xnnn0Kw+py3KhJm9WaXkqmoH713pv4YMuonk+o&#xA;2sYAcnjPnj/yalz/AMxlv/xGPM3F/d/BxMn1vofNY5r5V81f+Tyl/wC2zb/8nI8kx6s7/wCcnv8A&#xA;eHy//wAZbn/iMeAJLKvyg02y1P8AJzTNPvohNaXUd3FNE3Qq13MPoPge2JUPAvP3k/VfJHmC500y&#xA;ObK6Q/VbgbCe2ZgeLU2qpUch4ivhhYl6Z/zi9/003/Rj/wBjGApCO/5yb/44Wi/8xUn/ACbxCSyb&#xA;8hP/ACWen/8AGW5/5PtiVDy3/nJX/lOrH/tlxf8AURPhCCy3QvzF/JK20PTre8trY3cNtDHcE6dy&#xA;PqLGA9W9M1+IdcFJsJ95+1zRNb/JjVL/AERg2mNCkduBGYgoiuETiEIXiF40G2Kl5f8AkX5+8s+U&#xA;jrY1yd4Be/Vvq5SN5AfR9XlXgDT+8GEoBe6eU/zE8qea57iDRLpp5bZVeVXikjorGgI5gV3yNJtk&#xA;uKXYq7FXYq7FXYq7FXYq7FXYq7FXyto97r2jX6ahpokgu4wwSX0g9Aw4n4XVl6HwzcSEZCi6+JIN&#xA;hkX/ACs78zf+W6T/AKRYP+qWVeBj7mfizd/ys78zf+W6T/pFg/6pY+Bj7l8Wbv8AlZ35m/8ALdJ/&#xA;0iwf9UsfAx9y+LN3/KzvzN/5bpP+kWD/AKpY+Bj7l8Wbv+Vnfmb/AMt0n/SLB/1Sx8DH3L4s3f8A&#xA;KzvzN/5bpP8ApFg/6pY+Bj7l8WaSx3Gs6p5mt9Q1BZJbqe5haaX0+FSGVeiqqjYeGWUBGgwsk2X1&#xA;DmodgwDUfyV8q3/mtvM0tzfJftcx3ZiSSIQ+pGVIFDEzUJXf4sNopNvPf5c6J51is4tVnuYVsmdo&#xA;jatGhJkCg8vUST+XtgtSEz8qeWrDyzoFrodhJLLaWnqem85VpD6kjSnkUVF+057YpQvnTyNoXnDT&#xA;EsNWVwIn9SC4hKrNG3Q8WZXFGGxBFPwxWkH5D/LXQvJP179FT3U36Q9L1vrTxvT0efHj6ccf+/DW&#xA;uNoAVfPX5faN50tLW11Sa5hjtJGljNq0aEll4nl6iSbY2pCO8o+VdP8AK2hQ6Lp8k0trAzsj3BVp&#xA;CZGLmpRUHU+GKUh88flF5b85atFqep3N5DcQwLbKts8SpwV3cEh4pDWsh74bRTHf+havIv8Ay3ap&#xA;/wAjbf8A6oY2tMtt/wAtNCg8jS+TEnujpcvLlMXj+sfFL6po3p8Ptf5HTBa0xL/oWryL/wAt2qf8&#xA;jbf/AKoYbWmUeRPys8veS7q6udLnu55LtFjk+tPGwCqeXw+nHH+ONqAzHAl2KuxV2KuxV2KuxV2K&#xA;uxV2KuxV/9k=</xmpGImg:image>
               </rdf:li>
            </rdf:Alt>
         </xmp:Thumbnails>
      </rdf:Description>
      <rdf:Description rdf:about=""
            xmlns:xmpTPg="http://ns.adobe.com/xap/1.0/t/pg/"
            xmlns:stDim="http://ns.adobe.com/xap/1.0/sType/Dimensions#"
            xmlns:xmpG="http://ns.adobe.com/xap/1.0/g/">
         <xmpTPg:MaxPageSize rdf:parseType="Resource">
            <stDim:w>10.890028</stDim:w>
            <stDim:h>2.413344</stDim:h>
            <stDim:unit>Inches</stDim:unit>
         </xmpTPg:MaxPageSize>
         <xmpTPg:NPages>1</xmpTPg:NPages>
         <xmpTPg:HasVisibleTransparency>False</xmpTPg:HasVisibleTransparency>
         <xmpTPg:HasVisibleOverprint>False</xmpTPg:HasVisibleOverprint>
         <xmpTPg:PlateNames>
            <rdf:Seq>
               <rdf:li>Cyan</rdf:li>
               <rdf:li>Magenta</rdf:li>
               <rdf:li>Yellow</rdf:li>
               <rdf:li>Black</rdf:li>
            </rdf:Seq>
         </xmpTPg:PlateNames>
         <xmpTPg:SwatchGroups>
            <rdf:Seq>
               <rdf:li rdf:parseType="Resource">
                  <xmpG:groupName>Default Swatch Group</xmpG:groupName>
                  <xmpG:groupType>0</xmpG:groupType>
               </rdf:li>
            </rdf:Seq>
         </xmpTPg:SwatchGroups>
      </rdf:Description>
   </rdf:RDF>
</x:xmpmeta>
                                                                                                    
                                                                                                    
                                                                                                    
                                                                                                    
                                                                                                    
                                                                                                    
                                                                                                    
                                                                                                    
                                                                                                    
                                                                                                    
                                                                                                    
                                                                                                    
                                                                                                    
                                                                                                    
                                                                                                    
                                                                                                    
                                                                                                    
                                                                                                    
                                                                                                    
                                                                                                    
                           
<?xpacket end="w"?>
	</metadata>
<g>
	<path fill-rule="evenodd" clip-rule="evenodd" fill="#494E51" d="M229.983,91.533c0.376-0.019,0.741-0.052,1.105-0.052
		c4.4-0.003,8.8,0.019,13.201-0.021c0.804-0.007,1.291,0.259,1.762,0.896c10.74,14.486,21.499,28.959,32.256,43.434
		c0.237,0.32,0.485,0.631,0.924,1.201c0-15.324,0-30.349,0-45.441c5.028,0,9.918,0,14.917,0c0.02,0.396,0.053,0.753,0.053,1.109
		c0.003,22.104-0.004,44.206,0.024,66.309c0.001,0.994-0.288,1.237-1.25,1.226c-4.399-0.05-8.8-0.044-13.2-0.002
		c-0.801,0.007-1.28-0.255-1.75-0.892c-10.718-14.545-21.457-29.074-32.193-43.607c-0.229-0.309-0.476-0.604-0.914-0.824
		c0,15.041,0,30.082,0,45.214c-5.018,0-9.936,0-14.936,0C229.983,137.262,229.983,114.44,229.983,91.533z"/>
	<path fill-rule="evenodd" clip-rule="evenodd" fill="#354791" d="M82.606,97.648c8.912,12.781,17.728,25.425,26.692,38.281
		c-0.581,0.029-0.95,0.063-1.319,0.063c-8.278,0.003-16.557-0.006-24.836,0.017c-0.833,0.002-1.388-0.193-1.87-0.952
		c-11.286-17.785-22.598-35.552-33.903-53.324c-0.147-0.232-0.263-0.484-0.493-0.913c0.538-0.029,0.948-0.069,1.358-0.07
		c6.559-0.004,13.118,0.001,19.677-0.004c5.399-0.005,9.665-3.699,10.136-8.764c0.559-6.008-2.73-10.564-8.355-11.537
		c-0.585-0.101-1.195-0.073-1.794-0.073c-12.478-0.004-24.956-0.003-37.433-0.003c-1.607,0-1.61-0.001-1.61-1.546
		c-0.001-6.119,0.018-12.238-0.019-18.357c-0.006-0.985,0.292-1.318,1.292-1.316c14.357,0.031,28.717-0.136,43.071,0.092
		c10.367,0.164,18.316,5.062,23.828,13.787c3.542,5.606,5.051,11.876,4.521,18.433c-0.974,12.049-6.677,20.965-18.108,25.758
		C83.228,97.31,83.027,97.432,82.606,97.648z"/>
	<path fill-rule="evenodd" clip-rule="evenodd" fill="#494E51" d="M658.512,81.797c-5.01,0-9.807,0-14.68,0
		c0-22.442,0-44.832,0-67.355c0.392,0,0.747,0,1.105,0c9.004,0,18.006-0.005,27.01,0.001c10.764,0.008,19.098,7.25,20.379,17.915
		c1.256,10.461-4.467,18.794-12.907,21.583c-0.126,0.041-0.245,0.099-0.526,0.213c6.256,9.201,12.476,18.352,18.793,27.641
		c-0.518,0.024-0.84,0.054-1.164,0.054c-4.74,0.002-9.479-0.016-14.217,0.019c-0.796,0.006-1.264-0.231-1.699-0.921
		c-5.086-8.028-10.227-16.022-15.297-24.06c-0.549-0.87-1.121-1.175-2.108-1.124c-1.513,0.08-3.033,0.021-4.688,0.021
		C658.512,64.49,658.512,73.099,658.512,81.797z M658.492,35.576c0,2.368,0.018,4.737-0.01,7.105
		c-0.01,0.676,0.178,0.973,0.91,0.967c3.654-0.028,7.311,0.046,10.961-0.032c3.81-0.08,6.685-2.198,7.696-5.498
		c1.657-5.394-1.97-10.465-7.604-10.561c-3.651-0.062-7.307,0.008-10.961-0.041c-0.843-0.012-1.02,0.295-1.006,1.056
		C658.516,30.907,658.492,33.241,658.492,35.576z"/>
	<path fill-rule="evenodd" clip-rule="evenodd" fill="#494E51" d="M385.57,14.442c0.397,0,0.729,0,1.061,0
		c9.038,0,18.078-0.008,27.117,0.002c10.344,0.011,18.331,6.689,20.194,16.865c1.688,9.232-2.828,18.277-10.946,21.904
		c-0.705,0.316-1.436,0.58-2.348,0.945c6.254,9.2,12.473,18.348,18.783,27.633c-0.492,0.025-0.814,0.057-1.134,0.057
		c-4.774,0.002-9.548-0.017-14.321,0.021c-0.779,0.006-1.199-0.254-1.609-0.903c-5.145-8.115-10.328-16.203-15.471-24.318
		c-0.418-0.658-0.851-0.913-1.623-0.883c-1.617,0.061-3.238,0.019-4.979,0.019c0,8.7,0,17.312,0,25.994c-4.974,0-9.823,0-14.724,0
		C385.57,59.342,385.57,36.974,385.57,14.442z M400.274,27.604c0,5.218-0.007,10.323,0.024,15.427
		c0.002,0.201,0.385,0.574,0.588,0.574c4.092-0.005,8.195,0.14,12.27-0.146c4.314-0.303,7.265-3.952,7.047-8.185
		c-0.229-4.397-3.485-7.642-7.848-7.711c-3.754-0.061-7.512-0.022-11.266-0.024C400.86,27.539,400.631,27.574,400.274,27.604z"/>
	<path fill-rule="evenodd" clip-rule="evenodd" fill="#494E51" d="M235.565,54.195c6.245,9.185,12.452,18.314,18.756,27.586
		c-0.515,0.03-0.838,0.066-1.161,0.066c-4.773,0.003-9.547-0.014-14.321,0.019c-0.731,0.005-1.15-0.228-1.542-0.848
		c-5.146-8.113-10.328-16.204-15.476-24.315c-0.424-0.669-0.871-0.979-1.694-0.942c-1.586,0.072-3.177,0.021-4.893,0.021
		c0,8.666,0,17.274,0,25.975c-4.974,0-9.82,0-14.731,0c0-22.424,0-44.814,0-67.274c0.274-0.016,0.501-0.04,0.73-0.04
		c9.276-0.002,18.553-0.042,27.829,0.01c10.174,0.057,18.36,7.206,19.838,17.267c1.517,10.333-3.995,19.413-13,22.27
		C235.839,54.01,235.787,54.059,235.565,54.195z M215.239,43.511c0.207,0.046,0.366,0.113,0.526,0.113
		c3.82,0.004,7.647,0.135,11.46-0.035c4.811-0.213,7.979-3.646,7.84-8.185c-0.142-4.65-3.44-7.802-8.291-7.857
		c-3.583-0.041-7.167-0.012-10.751-0.008c-0.257,0-0.514,0.055-0.784,0.086C215.239,32.958,215.239,38.22,215.239,43.511z"/>
	<path fill-rule="evenodd" clip-rule="evenodd" fill="#494E51" d="M445.463,14.473c4.934,0,9.734,0,14.69,0c0,0.458,0,0.886,0,1.313
		c0,13.709,0.116,27.421-0.046,41.129c-0.089,7.411,5.817,12.609,12.688,12.784c3.584,0.092,6.842-0.81,9.615-3.127
		c2.805-2.345,4.262-5.377,4.266-9.05c0.01-13.879,0.005-27.758,0.005-41.637c0-0.435,0-0.87,0-1.373c4.925,0,9.776,0,14.751,0
		c0,0.451,0,0.88,0,1.309c0,14.455-0.072,28.91,0.028,43.363c0.058,8.249-3.592,14.327-10.332,18.714
		c-4.667,3.038-9.88,4.444-15.413,4.787c-6.421,0.398-12.545-0.67-18.23-3.744c-5.44-2.942-9.521-7.139-11.28-13.213
		c-0.49-1.697-0.749-3.521-0.759-5.29c-0.057-14.962-0.031-29.924-0.029-44.886C445.416,15.221,445.444,14.89,445.463,14.473z"/>
	<path fill-rule="evenodd" clip-rule="evenodd" fill="#494E51" d="M363.165,57.727c4.232,2.192,8.397,4.351,12.56,6.506
		c-5.536,11.567-19.398,20.115-34.576,18.319c-17.213-2.037-30.503-16.535-30.574-34.276c-0.068-16.888,12.373-31.622,28.754-34.238
		c17.656-2.82,31.387,7.516,36.398,18.066c-4.158,2.154-8.319,4.309-12.56,6.505c-4.095-7.076-10.217-10.675-18.35-10.617
		c-5.681,0.041-10.57,2.137-14.44,6.341c-7.902,8.584-6.825,22.527,2.219,29.755C341.51,71.214,356.784,69.639,363.165,57.727z"/>
	<path fill-rule="evenodd" clip-rule="evenodd" fill="#494E51" d="M398.236,104.684c-8.717,0-17.366,0-26.114,0
		c-0.025,0.445-0.059,0.772-0.059,1.1c-0.004,4.131,0.018,8.26-0.02,12.389c-0.009,0.845,0.248,1.09,1.09,1.086
		c6.702-0.029,13.404-0.017,20.108-0.017c0.399,0,0.798,0,1.26,0c0,4.409,0,8.721,0,13.151c-0.437,0-0.832,0-1.228,0
		c-6.67,0-13.338,0.021-20.008-0.021c-0.998-0.007-1.239,0.304-1.227,1.262c0.049,4.028,0.021,8.057,0.021,12.084
		c0,0.366,0,0.73,0,1.184c0.573,0.028,1.036,0.07,1.5,0.07c7.786,0.006,15.574,0.004,23.358,0.006c1.382,0,1.382,0.002,1.383,1.386
		c0.002,3.521,0,7.041,0,10.562c0,0.366,0,0.732,0,1.172c-13.77,0-27.427,0-41.155,0c0-22.824,0-45.624,0-68.52
		c13.664,0,27.343,0,41.091,0C398.236,95.933,398.236,100.246,398.236,104.684z"/>
	<path fill-rule="evenodd" clip-rule="evenodd" fill="#494E51" d="M275.987,54.576c0,4.865,0,9.523,0,14.297
		c8.552,0,17.061,0,25.651,0c0,4.354,0,8.593,0,12.905c-13.45,0-26.87,0-40.37,0c0-22.4,0-44.788,0-67.256
		c13.424,0,26.871,0,40.384,0c0,4.248,0,8.49,0,12.858c-8.551,0-17.061,0-25.64,0c0,4.806,0,9.487,0,14.255
		c7.264,0,14.494,0,21.831,0c0,4.322,0,8.56,0,12.94C290.616,54.576,283.362,54.576,275.987,54.576z"/>
	<path fill-rule="evenodd" clip-rule="evenodd" fill="#494E51" d="M632.365,68.873c0,4.41,0,8.626,0,12.91
		c-13.479,0-26.902,0-40.395,0c0-22.427,0-44.819,0-67.276c13.44,0,26.867,0,40.373,0c0,4.229,0,8.473,0,12.851
		c-8.508,0-17.018,0-25.608,0c0,4.813,0,9.494,0,14.298c7.269,0,14.526,0,21.86,0c0.033,0.442,0.078,0.769,0.078,1.096
		c0.005,3.588-0.027,7.177,0.023,10.766c0.014,0.921-0.293,1.123-1.161,1.119c-6.468-0.034-12.935-0.019-19.401-0.019
		c-0.435,0-0.867,0-1.393,0c0,4.774,0,9.454,0,14.255C615.249,68.873,623.759,68.873,632.365,68.873z"/>
	<path fill-rule="evenodd" clip-rule="evenodd" fill="#494E51" d="M350.202,104.773c-0.587,0-0.986,0-1.386,0
		c-4.908,0-9.816,0.026-14.723-0.021c-0.993-0.01-1.237,0.303-1.236,1.261c0.026,17.532,0.02,35.064,0.02,52.597
		c0,0.469,0,0.938,0,1.484c-4.953,0-9.809,0-14.78,0c-0.024-0.459-0.069-0.916-0.069-1.371c-0.003-17.499-0.003-34.998-0.003-52.496
		c0-1.451-0.002-1.453-1.409-1.453c-4.908,0-9.815,0-14.723,0c-0.397,0-0.793,0-1.243,0c0-4.467,0-8.813,0-13.24
		c0.412-0.02,0.776-0.052,1.141-0.052c15.704-0.003,31.408,0.007,47.113-0.024c1.011-0.002,1.342,0.24,1.323,1.291
		c-0.064,3.587-0.024,7.176-0.024,10.763C350.202,103.878,350.202,104.244,350.202,104.773z"/>
	<path fill-rule="evenodd" clip-rule="evenodd" fill="#494E51" d="M553.501,81.85c0-18.174,0-36.168,0-54.297
		c-5.701,0-11.327,0-17.011,0c0-4.417,0-8.699,0-13.045c16.189,0,32.348,0,48.574,0c0,4.299,0,8.581,0,13.001
		c-5.584,0-11.182,0-16.922,0c0,0.634,0,1.133,0,1.631c0,17.092,0,34.183,0,51.274c0,1.435-0.002,1.436-1.42,1.436
		c-3.959,0-7.919,0-11.879,0C554.444,81.85,554.045,81.85,553.501,81.85z"/>
	<path fill-rule="evenodd" clip-rule="evenodd" fill="#494E51" d="M424.885,91.559c0,0.564,0,1.034,0,1.504
		c0,17.363,0,34.725,0.004,52.088c0,1.961-0.193,1.705,1.755,1.707c6.634,0.01,13.267,0.025,19.9-0.02
		c0.967-0.008,1.189,0.307,1.181,1.205c-0.041,3.654-0.038,7.311-0.004,10.965c0.01,0.832-0.156,1.188-1.107,1.184
		c-11.912-0.031-23.826-0.021-35.739-0.022c-0.296,0-0.593-0.04-0.933-0.063c0-22.867,0-45.667,0-68.547
		C414.877,91.559,419.801,91.559,424.885,91.559z"/>
	<path fill-rule="evenodd" clip-rule="evenodd" fill="#354791" d="M118.148,103.331c0-10.399,0.017-20.799-0.024-31.198
		c-0.005-1.152,0.313-1.496,1.479-1.488c7.199,0.05,14.399,0.05,21.598,0c1.169-0.008,1.477,0.343,1.475,1.491
		c-0.032,20.798-0.032,41.597,0,62.396c0.001,1.152-0.316,1.497-1.478,1.489c-7.2-0.049-14.399-0.05-21.599,0
		c-1.165,0.008-1.48-0.343-1.476-1.491C118.166,124.13,118.148,113.73,118.148,103.331z"/>
	<path fill-rule="evenodd" clip-rule="evenodd" fill="#494E51" d="M215.769,91.545c0,22.885,0,45.688,0,68.572
		c-0.37,0.02-0.699,0.052-1.029,0.052c-4.265,0.003-8.531-0.021-12.795,0.02c-0.863,0.009-1.166-0.183-1.165-1.11
		c0.026-22.172,0.024-44.344,0.004-66.516c0-0.826,0.215-1.109,1.076-1.101c4.298,0.04,8.598,0.017,12.897,0.02
		C215.086,91.481,215.417,91.521,215.769,91.545z"/>
	<path fill-rule="evenodd" clip-rule="evenodd" fill="#494E51" d="M527.781,14.496c0,22.416,0,44.782,0,67.277
		c-0.299,0.024-0.621,0.073-0.94,0.073c-4.197,0.005-8.397-0.015-12.595,0.02c-0.794,0.006-1.038-0.226-1.036-1.029
		c0.018-21.802,0.015-43.605,0.017-65.408c0-0.295,0.046-0.59,0.073-0.933C518.151,14.496,522.938,14.496,527.781,14.496z"/>
	<path fill-rule="evenodd" clip-rule="evenodd" fill="#354791" d="M130.339,60.37c-3.636,0-7.273-0.03-10.909,0.02
		c-0.993,0.014-1.307-0.293-1.301-1.294c0.039-6.194,0.042-12.388-0.002-18.582c-0.008-1.058,0.32-1.371,1.366-1.365
		c7.273,0.038,14.546,0.038,21.819,0c1.051-0.005,1.37,0.316,1.362,1.37c-0.043,6.194-0.041,12.388-0.001,18.582
		c0.006,1.006-0.317,1.302-1.304,1.289C137.692,60.34,134.016,60.37,130.339,60.37z"/>
</g>
<rect x="8" y="7.88" fill-rule="evenodd" clip-rule="evenodd" fill="none" stroke="#58759C" stroke-width="16" stroke-miterlimit="10" width="157" height="158"/>
</svg>
