<?xml version="1.0" encoding="utf-8"?>
<!-- Generator: Adobe Illustrator 16.0.0, SVG Export Plug-In . SVG Version: 6.00 Build 0)  -->
<!DOCTYPE svg PUBLIC "-//W3C//DTD SVG 1.1//EN" "http://www.w3.org/Graphics/SVG/1.1/DTD/svg11.dtd">
<svg version="1.1" id="Layer_1" xmlns="http://www.w3.org/2000/svg" xmlns:xlink="http://www.w3.org/1999/xlink" x="0px" y="0px"
	 width="713.574px" height="173.761px" viewBox="0 0 713.574 173.761" enable-background="new 0 0 713.574 173.761"
	 xml:space="preserve">
<metadata><?xpacket begin="﻿" id="W5M0MpCehiHzreSzNTczkc9d"?>
<x:xmpmeta xmlns:x="adobe:ns:meta/" x:xmptk="Adobe XMP Core 5.3-c011 66.145661, 2012/02/06-14:56:27        ">
   <rdf:RDF xmlns:rdf="http://www.w3.org/1999/02/22-rdf-syntax-ns#">
      <rdf:Description rdf:about=""
            xmlns:xmpMM="http://ns.adobe.com/xap/1.0/mm/"
            xmlns:stRef="http://ns.adobe.com/xap/1.0/sType/ResourceRef#"
            xmlns:stEvt="http://ns.adobe.com/xap/1.0/sType/ResourceEvent#">
         <xmpMM:DerivedFrom rdf:parseType="Resource">
            <stRef:instanceID>xmp.iid:2A7F2BA7AB2DE811BE78A053C6CC9028</stRef:instanceID>
            <stRef:documentID>xmp.did:2A7F2BA7AB2DE811BE78A053C6CC9028</stRef:documentID>
            <stRef:originalDocumentID>xmp.did:277F2BA7AB2DE811BE78A053C6CC9028</stRef:originalDocumentID>
         </xmpMM:DerivedFrom>
         <xmpMM:DocumentID>xmp.did:11DC95826F2EE811A3B1A19654B49B79</xmpMM:DocumentID>
         <xmpMM:InstanceID>xmp.iid:11DC95826F2EE811A3B1A19654B49B79</xmpMM:InstanceID>
         <xmpMM:OriginalDocumentID>xmp.did:277F2BA7AB2DE811BE78A053C6CC9028</xmpMM:OriginalDocumentID>
         <xmpMM:History>
            <rdf:Seq>
               <rdf:li rdf:parseType="Resource">
                  <stEvt:action>saved</stEvt:action>
                  <stEvt:instanceID>xmp.iid:277F2BA7AB2DE811BE78A053C6CC9028</stEvt:instanceID>
                  <stEvt:when>2018-03-22T16:33:10+08:00</stEvt:when>
                  <stEvt:softwareAgent>Adobe Illustrator CS6 (Windows)</stEvt:softwareAgent>
                  <stEvt:changed>/</stEvt:changed>
               </rdf:li>
               <rdf:li rdf:parseType="Resource">
                  <stEvt:action>saved</stEvt:action>
                  <stEvt:instanceID>xmp.iid:11DC95826F2EE811A3B1A19654B49B79</stEvt:instanceID>
                  <stEvt:when>2018-03-23T15:55:10+08:00</stEvt:when>
                  <stEvt:softwareAgent>Adobe Illustrator CS6 (Windows)</stEvt:softwareAgent>
                  <stEvt:changed>/</stEvt:changed>
               </rdf:li>
            </rdf:Seq>
         </xmpMM:History>
      </rdf:Description>
      <rdf:Description rdf:about=""
            xmlns:dc="http://purl.org/dc/elements/1.1/">
         <dc:format>image/svg+xml</dc:format>
      </rdf:Description>
      <rdf:Description rdf:about=""
            xmlns:xmp="http://ns.adobe.com/xap/1.0/"
            xmlns:xmpGImg="http://ns.adobe.com/xap/1.0/g/img/">
         <xmp:CreatorTool>Adobe Illustrator CS6 (Windows)</xmp:CreatorTool>
         <xmp:CreateDate>2018-03-23T15:55:09+08:00</xmp:CreateDate>
         <xmp:MetadataDate>2018-03-23T15:55:10+08:00</xmp:MetadataDate>
         <xmp:ModifyDate>2018-03-23T15:55:10+08:00</xmp:ModifyDate>
         <xmp:Thumbnails>
            <rdf:Alt>
               <rdf:li rdf:parseType="Resource">
                  <xmpGImg:width>256</xmpGImg:width>
                  <xmpGImg:height>76</xmpGImg:height>
                  <xmpGImg:format>JPEG</xmpGImg:format>
                  <xmpGImg:image>/9j/4AAQSkZJRgABAgEASABIAAD/7QAsUGhvdG9zaG9wIDMuMAA4QklNA+0AAAAAABAASAAAAAEA&#xA;AQBIAAAAAQAB/+4ADkFkb2JlAGTAAAAAAf/bAIQABgQEBAUEBgUFBgkGBQYJCwgGBggLDAoKCwoK&#xA;DBAMDAwMDAwQDA4PEA8ODBMTFBQTExwbGxscHx8fHx8fHx8fHwEHBwcNDA0YEBAYGhURFRofHx8f&#xA;Hx8fHx8fHx8fHx8fHx8fHx8fHx8fHx8fHx8fHx8fHx8fHx8fHx8fHx8fHx8f/8AAEQgATAEAAwER&#xA;AAIRAQMRAf/EAaIAAAAHAQEBAQEAAAAAAAAAAAQFAwIGAQAHCAkKCwEAAgIDAQEBAQEAAAAAAAAA&#xA;AQACAwQFBgcICQoLEAACAQMDAgQCBgcDBAIGAnMBAgMRBAAFIRIxQVEGE2EicYEUMpGhBxWxQiPB&#xA;UtHhMxZi8CRygvElQzRTkqKyY3PCNUQnk6OzNhdUZHTD0uIIJoMJChgZhJRFRqS0VtNVKBry4/PE&#xA;1OT0ZXWFlaW1xdXl9WZ2hpamtsbW5vY3R1dnd4eXp7fH1+f3OEhYaHiImKi4yNjo+Ck5SVlpeYmZ&#xA;qbnJ2en5KjpKWmp6ipqqusra6voRAAICAQIDBQUEBQYECAMDbQEAAhEDBCESMUEFURNhIgZxgZEy&#xA;obHwFMHR4SNCFVJicvEzJDRDghaSUyWiY7LCB3PSNeJEgxdUkwgJChgZJjZFGidkdFU38qOzwygp&#xA;0+PzhJSktMTU5PRldYWVpbXF1eX1RlZmdoaWprbG1ub2R1dnd4eXp7fH1+f3OEhYaHiImKi4yNjo&#xA;+DlJWWl5iZmpucnZ6fkqOkpaanqKmqq6ytrq+v/aAAwDAQACEQMRAD8Ahmh6Hqmu6pBpWlQfWL+4&#xA;5ejDyROXBDI3xSFVFFUnc5spSAFlxgLZZ/yo780f+rL/ANPVp/1Wyvxo97LgLv8AlR35o/8AVl/6&#xA;erT/AKrY+NHvXgLv+VHfmj/1Zf8Ap6tP+q2PjR714C7/AJUd+aP/AFZf+nq0/wCq2PjR714C7/lR&#xA;35o/9WX/AKerT/qtj40e9eAu/wCVHfmj/wBWX/p6tP8Aqtj40e9eApFoFjdaf5606wu09K7tNUhg&#xA;uI6huMkdwqOtVJU0Ydjk5G4oHN9m5rnIecar+fXkjTNUvNNuY703FjPJbTFIUK84nKNxJkFRVcuG&#xA;CRFsDMLLP/nIP8vLi4SF3u7ZXNPWmh+AfPgzt+GJwSXxAz+51Syg0qXVeYmsooGuvUiIcNEqF6oQ&#xA;aGqjbfKq3pnbzn/oYvyB/vu//wCRKf8AVTLvAkw8QJr5Y/Ojyf5k1y20XT0uxeXXP0jLEqp+7jaR&#xA;qkO37KHtkZYSBaRMFmepanp+mWUt9qFxHa2kIrJNKwVQPmcrAtlbza+/5yM8h29wYoIb68RTT14o&#xA;o1QjxUSyRv8Aeoy4aeTDxAyfyh+Z3k/zW/oaZdlL0DkbK4X0pqDuoqVf34saZXPGY80iQKI86+fd&#xA;D8nWttc6sszR3TmOL0EDnko5GtWXGEDLkkypiP8A0MX5A/33f/8AIlP+qmWeBJj4gZj5R8+eWfNl&#xA;vJLo116jw09e3kUpLHy6clPb3FRlcoGPNkJApL5q/OTyj5Z1qbR9RS7a7hVGcwxKyUkUOKEuvY+G&#xA;SjiJFhBmAzrKmTBZPzk8ox+ah5ZZLv8ASJvFsOQiX0vWaQRj4udePI9aZb4Rq2PGLpEec/zX8r+U&#xA;NUi03VUuWuJoFuUMEauvBndBUl13rGcEMRkLCmQDvNX5r+V/LH1D9JJct+kYBc2/oxq3wGn2qutD&#xA;vjHEZclMgEg/6GL8gf77v/8AkSn/AFUyfgSR4gTfyv8AnJ5R8yamdO05LsXAiknrLEqrxiFW3Dtv&#xA;kZYiBaRMFKP+hi/IH++7/wD5Ep/1UyXgSR4gRujfnr5J1fVrTS7SO8FzeyrBCZIkC8nNByIkO2RO&#xA;GQFqJhG+bfzg8p+VtYbSdTS6a6VEkJhjV04uKjcuv6sEcRkLCTMBJ1/5yK/L9mAKXygmhYwpQe5p&#xA;ITkvAkjxA9A0LXtI17TY9S0m5W6s5dlkWoII6qymjKw7giuVSiQaLIG3y9+R3/k0dF/6Ov8AqEmz&#xA;NzfSWmHN9G67+YvkvQb86fq2qJa3gVXMLJIx4t0NUVhmJHGTybjIBL/+Vyfln/1fIv8AkXP/ANU8&#xA;PhS7kcYRFh+av5eX9wtvb67beq+yiUtCCT0AaVUWv04DikOi8QZX13GQZJfqHmDR9OmWG9uVhlZe&#xA;aqQx+EkiuwPcZjZtZixGpmi34tNkyC4iwv07WtL1IyCxuFmMVOYAYU5Vp1A8MODVY8t8BukZdPPH&#xA;9Qq3yrf/APk5bn/wIn/6jjm3H0fBwur63zAb3ygdL07VfzpvtO1IcrG51q8S4HIpVfXk/aBBGZ11&#xA;DbuaK9TKfzi/Lv8AL/y75egvdFl9DUWnWNLb1zN6qEHkeLFiOGxr07dxkMWSRO7KcQGR/lPd3s/5&#xA;Ja0lyWMdsmoRWhb/AH19XD7e3qO2Qyj1hMfpeYflNo3knVdavIfNs8NvZJbc7dp7kWqmX1FFAxZK&#xA;niTtl2UyA2YRA6vb/Jnkj8pLXXItQ8sXFvdapZK7qLe++slFkUxMzIJH2o9NxmNOc63bAB0eWfnZ&#xA;5m1TzL55XyxYlpLWxmS1t7ZDtLdyUVmYfzBm4Dwp7nL8MQI2wmbNM70H/nHPypBpsa61NPeaiygz&#xA;vFJ6cSt3EYC1IHi3X2yqWc3syGMMW1n/AJx+8zWHme1fyrd1sC3qx308gjltXQgjkUFXPdSi/OnU&#xA;2DOCN0GBvZN/+cjUuo/K3l5LuVZrtJmW4mReCvIIQHYLU8QW3pkdPzKcnJR/LX8sPy71ryHp+q6w&#xA;lNQnE/1iX6y0VOE8iKePIKKIo7Y5MkhKgiMQQwr8rn/Rv5v2tro9wbqyN1c2qTDpNagPRzTtxQP9&#xA;GWZN4bsY82vz5/8AJmah/wAYrb/kwuHB9Kz5vqnMFvfK17/5Plf/AAIov+otczh9HwaP4k2/5yU/&#xA;5Tqx/wC2XF/1ET5HT/SnJzev3v5d+VfNWlaNca1bPPLbWUUcJWWSOisik7IRXfMcZDEmmzhBfPvm&#xA;fyzo9h+areXraJl0sX1rbiIuxPpy+nzHMnlvzPfMuMiY21EbvoLSvyr8l+W5Z9T0m0eG8W3ljDtN&#xA;I44upB+FmIzEOQnYtoiA+ePyt0ryjqfmZrbzVNFBpgtpHV55xbL6oZQo5lk3oTtXMvISBs0xAvd7&#xA;h5Z8gfkyNatrnQLm2utTs2FzClvf+uymMg8iiyNUA07ZjSnOt20RDyn/AJyC/wDJjTf8wsH/ABE5&#xA;fg+lryc2b+avyo/K+x8l3moxSfU7yG1M0M/1lnrMEqqcGZgebfDQCvhlUcsiaZmIpLf+cZLq7+va&#xA;5aBmNp6UMpXqok5MoPsStfnT2yWoHJGNhf5Hf+TR0X/o6/6hJsszfSWMObM/zn/LnzprvnaTUNJ0&#xA;x7uze3hQSq8QHJQQRRmU5XhyREd2U4klgv8Aypv8y/8Aqxy/8jIf+a8t8WPex4Cx/wAweWNf8vXS&#xA;Wus2UllNIvOMSUIZfFWUlTTvQ5KMgeTEint//OO3ne+1CC68sX8jTGxiFxp8jGpWAMEeInwRmXj8&#xA;6dAMxs8K3bccujLvPfl/WNR1eGeytjNEtuqMwKj4g7mm5HZhnLdraPLlygwFjh/SXfdnanHjxkSN&#xA;G/1InyDoeqabLetfQGESLGEqVNSC1ehPjlvZGlyYjLjFXTX2lqIZBHhNvnm//wDJy3P/AIET/wDU&#xA;cc6sfR8HRdX1vmA3vkXV9Cl1782NV0eGVYZb3WLyJZXBKqTPIakD5ZniVQvycciyl9/5WXQPOI0L&#xA;zK729tDOqXVzAORMD9Jo+Q3BU16fRXbCJWLC1R3fUV5o+k6P+XF9p2kKF06HTLn6uVPLkGhdi5b9&#xA;ouTyJzCBJlu3Vs+bPy0/L7/G+rXWn/X/ANH/AFaD6x6vo+ty+NU48ecVPtda5mZJ8IaYxt7r+Wn5&#xA;Qf4I1a61D9LfpD6zB9X9L6v6PH41fly9WWv2elMxsmXiHJtjCnjnmx38rfnTPqF4jNDDqiage5aG&#xA;WQTHj8lYge4zIj6oNZ2k+odO1Gx1KyhvrCdLm0uFDwzRmqsp/wA+mYRFN7HPMH5oeS9A1uDR9Tvv&#xA;SupVLSMql44enETFalC1dtvc0FKyjjJFhiZAMA/5ySuILjy3oNxbyLNBNO8kUqEMjo0QKsrDYgg1&#xA;By7T8yxycnk13+X+rweRbHzkjrNp13I8csaBucPGV4lZ+3Fmj6+4y8THFTXw7W9X/wCcc9D8qvY3&#xA;Gsws03mGEmC4SSlII33VogO0gG7HfYj50agnl0bMYDA/z7Vh+Zd+SKBobcqfEeio/WMswfSwnzfU&#xA;ltcQXNvFcW8iywTKskUimqsrCqsD4EZhN75XeaK6/POOa2YTRP5hiZHT4gVF2tSCO23XM7+D4NH8&#xA;Sc/85Kf8p1Y/9suL/qInyOn+lOTm+hdA/wCOFp3/ADCw/wDJtcxJc20Pmzzt/wCT3f8A7alj/wAy&#xA;czIfQ0n6n01f/wC8Nz/xif8A4icww3vkT8uvJH+MvMDaR9d+ocYHn9f0vW+wyjjx5x9eXWuZ+SfC&#xA;LceIt7r+XX5Lf4N8wNq/6Z+v8oHg9D6t6P22U8uXqydOPSmYuTNxCqbYwp5X/wA5Bf8Akxpv+YWD&#xA;/iJy/B9LXk5sc88+QdW8oXVpHeus9vewia3uYwQrfzpv0Zaj7xk4TEkSjT6O/KLRPK2neTrW58vs&#xA;00eoKJrq6lp6ryj4WRwNl9M1UKOnv1OHlJJ3boAU8F/I7/yaOi/9HX/UJNmVm+ktUOb6wzBb3n/m&#xA;D87vKOg6xdaRqNvfR3lo/CQCFCpBFVZSZBVWUgj2y2OEkWGBmA8e/OT8zNJ85y6dDpdvLHbWAkZp&#xA;rgKru8vHZVUtRQE8d/15GLGY82ucrTj/AJxr0e4l8y6jq5U/VrW1+rh6GhlmdWAB70WM1+YyOoO1&#xA;JxjdN/zz8/8Am/y95ttLLRtSeztZLCOZ4lSNgZGmmUtV1Y9EGRwwBG6ZyIKY/kJ5280eY7rWY9bv&#xA;2vUtkgaAMsa8S5cNTgq9aDBngBVJgSXlN/8A+Tluf/Aif/qOOXj6Pgw6vrfMBveDaZ+WPniD8338&#xA;wy6bx0g6tcXYuvXtz+5kldlbgJOe4Ybca5lHJHgryahE2zD86Py0n82aZDfaTEr67Y/DGhKp60LH&#xA;4oyzFRVT8S1Pj45XhycJ35MpxtDeQNH/ADDtfImr+WfMGmsjJaTRaPOZ7eTkJY2UQHhI1OLH4Sdq&#xA;bbUGGZjxAhYg1Ty3TPyn/OnSpWm0uzuLCZ14PJbX9vCzLWvElJ1JFRlxywPNrEZM2/Ljyx+dFl5z&#xA;0668yTX76LH631pZ9RW4j+KCRU5RCaTl+8K/s7dcrySgRtzZxEr3Zr+Z/wCVth51s45UkFprNqpW&#xA;2uyKqynf0pQNyteh6r94NePJw+5lKNvFP+VVfnFo8kltYQXCwsal7K7VYn7VoJEP/BLmR4sC1cJZ&#xA;D5K/5x81q6v0vvNzrbWqtzeySQSzzGtSHdCyqp7kMT8uuRnnHRkMfezT87vJGv8AmLRNJsvLtiLj&#xA;6nMxaFXihVI/TCrT1GjFO1BlWGYBNspi+Sdfl55SuLT8srPy15itAkjR3MV7alkccZp5XHxRll+y&#xA;4NQdvnkckvVYTEbUXmflv8uPzO8ked2vtFsDqOkpIYnYXFtH9ZtGNaMskiFXAoemzDwy6WSMo7sB&#xA;Egs2/Nr8pT5xEOp6bKltrVvH6RWXaOaMEsFZlrxZSTRt/A+IrxZeHY8mUo28rHkf88dNsJNKiF7B&#xA;pi1UxR3sa2/FjvT96FCtXfp75dLLjG5pgISOwZn+Tv5Qpp2pJ5g1e7t7i8ta/VbG2kWZYnIpzldT&#xA;xLAV4gVHeuY51kMgqBBbTp5QPqBC387/AMuPOfmbzXaX+iaf9btY7COB5PWgjpIs0rlaSuh+y47Z&#xA;bhyADdhOJJex6RBLb6TZQTLxlhgijkWoNGVACKjbrmOebYHiPmj8sfPF9+bLa9a6b6mkm/tZ/rPr&#xA;26/u4vT5twaQPtxO3GuZMckRCmoxNvdLuN5LSaNBV3jZVHiSCBmKG18vad+Uf5y6ZcG502wnsbgq&#xA;UM1tfW0T8TQleSTqaGmZpywPNo4Syryj5T/PW280aXPq8+otpcVzG16JdTSVDEGHPlGJ25CnahyE&#xA;pQrZkBK1/wCcX5Y+ePMPnSXUtH0361ZNBDGJfXt4/iQEMOMkiN+GOLJECis4kl6d538kQeavJzaP&#xA;OBHexxrJZTH/AHXcRrQVIr8J3VvY5RCfCbZyFhgv5M+W/wAzPKepS6fqulEaBeVZ3FxbP6MwG0gV&#xA;ZCxDAcWAHge2W5ZRkNubGAIeafkd/wCTR0X/AKOv+oSbLs30lhDm+sMwW95P+ff5f/pnRh5hsIq6&#xA;npaH6yqjeW1G7fMxfaHtX2y/BOjTXOL520xdObUbZdSaRdPMii7eCnqiIn4inIEVA6Zlnyag+yfK&#xA;OieXtH0G1tdARF010E0UqHkZfUAPqs/7RYU3/hmvkSTu5ADwT/nJT/lOrH/tlxf9RE+ZWn+lqyc0&#xA;2/5xi/3u8wf8Yrb/AIlJkdR0TjYLf/8Ak5bn/wACJ/8AqOOWj6Pgx6vrfMBvfONr5283N+czaW2r&#xA;3R079OyW/wBU9VvS9EXLII+NaceIpTMswHBddGmzbJf+chPM/mLRbzRF0jUbixWeO4MwgkaMMVZK&#xA;Vp1pXIYIg3bLIaVPyP8AzWudWZvLmv3Jm1Ld9Pu5TVpl6tExPV16r4j5bubFW4WEujLvzn1XUtL/&#xA;AC/vr3TbmS0u0kgCTwsUcBpVBoR4jK8QBluymdnmXk/WfzH8xfl3rP6Mv7y91qK/txBIJqSrEVJc&#xA;K7stB7Vy+YiJC+TAEkMU8xa5+cXlyWGLW9T1Kye4VmhD3JbkFIDUKMw2rk4iB5MSSE30GL8+NUhs&#xA;9StLnUp9PnZXSX6yoVkDUJ4s4NNvDIy4BskcSr+bnnTzlp/5kapp2maxd21shtlgtoZWRAXtomNA&#xA;DQVZiccUAY7hZE279C/85F/781T/AKS0/wCqmN41qTOPzH1XzZof5RaPO95cWeuh7WK+nWQ+sXMT&#xA;+oGdSa1Yb75VjAMz3MpEgJj+QWuaxrPk68utVvJr64TUZIklncuwQQQsFBParE4M4AOyYHZn+q6n&#xA;baZYy3lwfgjGyjqzHoo9zmHqM8cUDOXRyMOE5JCIYJbWWv8AnG5Nzcym30xGPAfsin7KLtybxY/2&#xA;ZzsMWbWy4pHhx/jl+t3U8mLSigLmmPlzSYNN85XdrZSPJbw2o9YvSodip41FAfHMrRacYtVKMDcR&#xA;Hf7HH1Wc5NOJSG5kzXN86h2KuxV2KuxVD32oWdhbm4vJRDCpoWavU9gBUk/LKsuaGOPFI0GzHilM&#xA;1EWVaORJY1kjPJHAZGHQgioOWRkCLDAgg0V2FDsVfJ/5Hf8Ak0dF/wCjr/qEmzOzfSWiHN9YZgt7&#xA;iAwIIqDsQehGKvlL84vIJ8qeZWktI+OjakWmsafZjNf3kP8AsCfh/wAkj3zOxT4h5tE40WZ/84//&#xA;AJjek48oanJ+7cl9IlY9GPxPBX/K+0nvUdxlefH1DKEuiTf85Kf8p1Y/9suL/qInyWn+lGTmm3/O&#xA;MX+93mD/AIxW3/EpMjqOicbBb/8A8nLc/wDgRP8A9Rxy0fR8GPV9b5gN75Wsv/J8t/4EUv8A1Ftm&#xA;cfo+DR/Eyz/nJ3/e7y//AMYrn/iUeV6fqyyMC1rydqmgaF5f83afJILW+jjl9dDRre7QkgVHQNx5&#xA;KfmPCtomCSGBFbvRfNH5g23nL8lL+ZyqavaSWseowDb4jMvGVR/JJSo8DUdspjDhmzMrijv+cZf+&#xA;OFrX/MVH/wAm8Go5hONKf+cnf97vL/8Axiuf+JR5LT9UZHqP5Uf+S50H/mFH/EjlOX6izjyfP351&#xA;ytF+a+ryrQtG1owB6VFpCcysP0BqnzZT/wBDNa730W1/5GSZD8uO9l4jM/8AnIv/AJQCP/mPh/4h&#xA;JleD6mWTkof841/8oLff9tSX/qHgx1H1Ix8mXeftH1XUra1+oqZUiZjLACASWACtv1pv9+aDtfTZ&#xA;MsY8G9dHb9m54YyeLa+qaQTto/l31r2OOEWsW0ERNBTZU5HqxPU+OZcJ+BguYA4RyH3e9xpR8XLU&#xA;bNnqlXlh49O0e513VH9OTUJPWkYg14kngANzvUke2YmgIxYpZshozN/qcnVg5MgxQ/h2R1z5y0e3&#xA;0uK/YvSevoQEUkfiaVp4e+ZGTtPFHGJ778h1aYaDJKZj3cz0bXzbYJoEWsXKNCsxKpbj4nZgxWi/&#xA;Zr9mtcR2jAYRlltfRTopHKcY3rqtn846dBo9tqU0cifW6+jbUHqGjUJ60p3rgn2lCOIZCD6uQ6rH&#xA;QzlkMBXp69HeY/N9no/GFUNxeuARADTiD0Lnenyx1vaUMG3Ofd+tOl0Msu/KPe15X80fpiK5+sRr&#xA;bT2p/eJU0CnueQFOhx0Gv8cHiHCYrrNH4RFGwUD+k9H816idMa2lktbUmYXAfirFfhoVG/Fq7b1z&#xA;H8fFrMnh0TGO9t3g5NNDjscR2pFeYvOFhooFpboJ7xQAIQaJGKbciP1D8Mt1vaUMHpjvLu7mvS6G&#xA;Wb1HaP3onRvMP1jQBq2pKlog5cmFeJCmgKg1O52plum1nFh8TJ6WvPpeHLwQ9ST3HnjUzNbPa6dS&#xA;zupPSt2makku4FVUHYb9dxmFPtXJcTGHpkaF8y5Uez4URKXqA3rkHgP5Hf8Ak0dF/wCjr/qEmzqs&#xA;30l0UOb6wzBb3YqluveXND8wWQsdYtEvLVXEixvUUdagMCpDA79jhjIjkgi0hh/KD8uYZUmh0VI5&#xA;Y2DxyLLOGVlNQQRJsQcn4su9HAEw8weQfKHmK8S91nTUvLqOMQpKzSKRGGLBfgZR1c4IzI5JMQVb&#xA;y75L8r+W2nbRLBLJrkKJyrOxYJXj9tm6cjglMnmoAD5iv/8Ayctz/wCBE/8A1HHM0fR8Gnq+t8wG&#xA;98rWX/k+W/8AAil/6i2zOP0fBo/iZZ/zk7/vd5f/AOMVz/xKPK9P1ZZHonkLRtP1r8pdK0vUIhNZ&#xA;3dl6cqd6FjRlPZlO4PY5VM1O2cRYfOPnXyrq/k7XbzRbh2MEqgwzLstxblwyMR/rIKjswzLhISFt&#xA;JFPYP+cZf+OFrX/MVH/ybzH1HMNmNKf+cnf97vL/APxiuf8AiUeS0/VGR6j+VH/kudB/5hR/xI5T&#xA;l+os48nz/wDnQ6J+bWqvIKxq9oXFK7C1hrtmVh+gNU+b1T/lcn5O/wDLJ/04r/TKPCmz4wp/npql&#xA;pq35WWGp2ZLWt5dW00JYcW4PHIRUHpjhFSpZnZiv5M/ml5U8qeWbrTdXedLiW9e5T04i6lHiiQbg&#xA;9axnLMuMyNhEJAB7T5Q866H5ssZr3R3keCCX0ZPVQoefEN0Ps2Y04GPNsBtL9bk/T2vw6DE3+h2v&#xA;7/UGB68afAPlyp8z7Zo9VL8xmGEfTHeX6vx+h2unHg4jlP1HaKX+frrjq+n2LxNJZRxiUW0e3Nyz&#xA;KF2/1QNvHMbtfJ+9hAi4AXXe39mw/dykD6r5pTfWlous20GtTiOVgJb8qDxiQLWO3jVenw0+8U6b&#xA;4eXHEZQMpo85eXdEOVjnLwycY25Dz75FGXk9hq3mC3ivq6fo1pBzghk/d8oxuKDtz9t6DL8k4Zsw&#xA;E/RijHYctv2/c0wjLFiJj6skjv8AjybMkureYYNSh064uNKt6R2UUagLWIfCCT8Krz3OPEc2cZBC&#xA;Rxx2j8P0WtDFiMDICZ5/FdoD2Ih1XXNSmjXVFeRYFkYckk41BVetamg+WS0ZhWTNkI8SzV9D+PuR&#xA;qRK4Y4A8GyVWjXtn5avittMhvGjWW6ZeMfpdVCk7sXJNfbMLGZwwSoH1VZ6V+1ypiM80dx6b28/2&#xA;Mh0zVtD0bQhFpbG71S4i9RxGpLcwhJL7fCqb7f7ebPBqMODDWP1ZCPxfkHAzYMmXLc/TAH8fNZ5W&#xA;0vy3LpEmo6pNHPcTFvrBmehj+I7da8mpWvXI6DBgOI5MhBkednknWZswyCEAQByrqgfNusRag+n2&#xA;lqpttJBpE8ilI3AIXmF2PBR0zH7R1IyGEY+nH9h8/cG7RYDDilLef4+1PV/RFhdRTvMNX1pwI7OG&#xA;LjxQU2EaLVYlA7nNiPCxyBJ8TLyAHT3DkA4R8ScSK4MfW/0975a0q283aTfxahptreWt7By9KeOG&#xA;QMvNSjUqvdWIzqiQeboxbIf8cfnF/wAtuqf8im/5oyHBBlxF3+OPzi/5bdU/5FN/zRjwQXiLv8cf&#xA;nF/y26p/yKb/AJox4ILxF3+OPzi/5bdU/wCRTf8ANGPBBeIu/wAcfnF/y26p/wAim/5ox4ILxF3+&#xA;OPzi/wCW3VP+RTf80Y8EF4ilvl/TvMdz5z02+vbO6eabUYZ7md4XFWedWd2PHuSSclIikC7fYWa9&#xA;yGFx/lF5Nj8zHzIsU41M3bX3L1Tw9ZnMhPGnTkemWeKapjwC7RvnH8uvLXm6W1k1lJXazV1h9KQx&#xA;7SEFq06/ZGCGQx5KYgp1omj2Wi6Ta6VYhhaWienCHPJuINdz3yJNm0gUlnm/yL5c8220EGs25k+r&#xA;MXgljYpIvIUYBh2buMlCZjyUxBd5P8jaB5Stri20dJEjuXEkvquZCWUcRSuM5mXNRGlDzj+XXlrz&#xA;dLayaykrtZq6w+lIY9pCC1adfsjGGQx5IMQU60TR7LRdJtdKsQwtLRPThDnk3EGu575EmzaQKYr5&#xA;j/J3yX5h1m41jUop2vbrh6pjmKL+7jWNaKB/KgyccsgKCDAFLf8AoX38uv8AfN1/yPb+mS8eSPDD&#xA;JdU/L7y5qflez8s3SSnS7H0/QVZCrj0lKrVu+zZATINpMRVMa/6F9/Lr/fN1/wAj2/pk/Hkjwwyv&#xA;yh5K0PylZTWWjrIkE8vrSCVy558QuxPsuVzmZc2QFIzSfL9hpk91Pb8mlu35yPIeRHfiD4VNcw9P&#xA;o4YjIx5ycnNqZZAAeUUVNp9lPcw3UsKvcW9fRkI3Wvhl0sMJSEiNxyao5ZAGIOxQM/lbR7jVjqk8&#xA;RkuDxJVjWOqgKDx+QzGnoMUsviEXL7G+OsyRx8AOzer+WNI1a4invI2MkQ41VuPJa14tTth1OgxZ&#xA;pCUhuEYNXkxAiJ5plBBDBCkMKCOKMBURRQADsMyoxERQ2AceUjI2eaVXHlLQbjUPr0tsGmJ5OtTw&#xA;ZvFl6Zhz7OwynxmO7lR1uWMeEHZML6wtb6zks7lOUEo4so26bgj5EZk5cMckTGXItGPJKEhIcwhN&#xA;H8t6TpKuLSKryCjyyHk5HhXw+WU6bQ48P0jm259XPL9RS2L8v/L6XpuSsjpXktszD0x7bDkR7VzF&#xA;j2PhE+Lf3dG89p5TGtvf1TDWvLWmavBFFcK0fof3LxEKVBoCoqCKbeGZOq0OPMAJbVypo0+rniJI&#xA;697ei+WtK0cMbWMtK2zTyEM5HhUAAD5DHS6HHg+kb955rqNXPL9XLuTTMxxnYq7FXYq7FXYq7FXY&#xA;q7FXYq7FXYq7FXYq7FXYq7FXYq7FXYq7FXYq7FXYq7FXYq7FXYq7FXYq7FXYq7FXYq7FXYq7FXYq&#xA;7FXYq7FXYq7FXYq7FXYq7FXYq7FXYq7FXYq7FXYq7FXYq7FXYq7FXYq7FXYq7FXYq//Z</xmpGImg:image>
               </rdf:li>
            </rdf:Alt>
         </xmp:Thumbnails>
      </rdf:Description>
      <rdf:Description rdf:about=""
            xmlns:xmpTPg="http://ns.adobe.com/xap/1.0/t/pg/"
            xmlns:stDim="http://ns.adobe.com/xap/1.0/sType/Dimensions#"
            xmlns:xmpG="http://ns.adobe.com/xap/1.0/g/">
         <xmpTPg:MaxPageSize rdf:parseType="Resource">
            <stDim:w>713.574219</stDim:w>
            <stDim:h>173.761230</stDim:h>
            <stDim:unit>Pixels</stDim:unit>
         </xmpTPg:MaxPageSize>
         <xmpTPg:NPages>1</xmpTPg:NPages>
         <xmpTPg:HasVisibleTransparency>False</xmpTPg:HasVisibleTransparency>
         <xmpTPg:HasVisibleOverprint>False</xmpTPg:HasVisibleOverprint>
         <xmpTPg:PlateNames>
            <rdf:Seq>
               <rdf:li>Cyan</rdf:li>
               <rdf:li>Magenta</rdf:li>
               <rdf:li>Yellow</rdf:li>
               <rdf:li>Black</rdf:li>
            </rdf:Seq>
         </xmpTPg:PlateNames>
         <xmpTPg:SwatchGroups>
            <rdf:Seq>
               <rdf:li rdf:parseType="Resource">
                  <xmpG:groupName>Default Swatch Group</xmpG:groupName>
                  <xmpG:groupType>0</xmpG:groupType>
               </rdf:li>
            </rdf:Seq>
         </xmpTPg:SwatchGroups>
      </rdf:Description>
   </rdf:RDF>
</x:xmpmeta>
                                                                                                    
                                                                                                    
                                                                                                    
                                                                                                    
                                                                                                    
                                                                                                    
                                                                                                    
                                                                                                    
                                                                                                    
                                                                                                    
                                                                                                    
                                                                                                    
                                                                                                    
                                                                                                    
                                                                                                    
                                                                                                    
                                                                                                    
                                                                                                    
                                                                                                    
                                                                                                    
                           
<?xpacket end="w"?>
	</metadata>
<g>
	<path fill="#414F6D" d="M229.983,91.533c0.376-0.019,0.741-0.052,1.105-0.052c4.4-0.003,8.8,0.019,13.201-0.021
		c0.804-0.008,1.291,0.258,1.762,0.896c10.74,14.485,21.499,28.959,32.256,43.435c0.237,0.319,0.485,0.631,0.924,1.201
		c0-15.324,0-30.35,0-45.441c5.028,0,9.918,0,14.917,0c0.02,0.396,0.053,0.754,0.053,1.109c0.003,22.104-0.004,44.205,0.024,66.309
		c0.001,0.994-0.288,1.236-1.25,1.228c-4.399-0.05-8.8-0.044-13.2-0.002c-0.801,0.009-1.28-0.255-1.75-0.894
		c-10.718-14.545-21.457-29.072-32.193-43.605c-0.229-0.311-0.476-0.604-0.914-0.822c0,15.041,0,30.082,0,45.215
		c-5.018,0-9.936,0-14.936,0C229.983,137.262,229.983,114.44,229.983,91.533z"/>
	<path fill="#414F6D" d="M82.606,97.648c8.912,12.781,17.728,25.426,26.692,38.281c-0.581,0.029-0.95,0.063-1.319,0.063
		c-8.278,0.004-16.557-0.006-24.836,0.018c-0.833,0.004-1.388-0.191-1.87-0.95C69.987,117.272,58.675,99.505,47.37,81.733
		c-0.147-0.232-0.263-0.484-0.493-0.913c0.538-0.029,0.948-0.069,1.358-0.07c6.559-0.004,13.118,0.001,19.677-0.004
		c5.399-0.005,9.665-3.699,10.136-8.764c0.559-6.008-2.73-10.564-8.355-11.537c-0.585-0.101-1.195-0.073-1.794-0.073
		c-12.478-0.004-24.956-0.003-37.433-0.003c-1.607,0-1.61-0.001-1.61-1.546c-0.001-6.119,0.018-12.238-0.019-18.357
		c-0.006-0.985,0.292-1.318,1.292-1.316c14.357,0.031,28.717-0.136,43.071,0.092c10.367,0.164,18.316,5.062,23.828,13.787
		c3.542,5.606,5.051,11.876,4.521,18.433c-0.974,12.049-6.677,20.965-18.108,25.758C83.228,97.31,83.027,97.432,82.606,97.648z"/>
	<path fill="#414F6D" d="M658.512,81.797c-5.01,0-9.807,0-14.68,0c0-22.442,0-44.832,0-67.355c0.392,0,0.747,0,1.105,0
		c9.004,0,18.006-0.005,27.01,0.001c10.764,0.008,19.098,7.25,20.379,17.915c1.256,10.461-4.467,18.794-12.907,21.583
		c-0.126,0.041-0.245,0.099-0.526,0.213c6.259,9.201,12.479,18.352,18.793,27.641c-0.518,0.024-0.84,0.054-1.161,0.054
		c-4.74,0.002-9.479-0.016-14.22,0.019c-0.796,0.006-1.264-0.231-1.696-0.921c-5.086-8.028-10.229-16.022-15.3-24.06
		c-0.549-0.87-1.118-1.175-2.105-1.124c-1.513,0.08-3.033,0.021-4.688,0.021C658.512,64.49,658.512,73.099,658.512,81.797z
		 M658.492,35.576c0,2.368,0.018,4.737-0.01,7.105c-0.013,0.676,0.178,0.973,0.907,0.967c3.654-0.028,7.313,0.046,10.961-0.032
		c3.813-0.08,6.688-2.198,7.696-5.498c1.657-5.394-1.97-10.465-7.604-10.561c-3.651-0.062-7.31,0.008-10.961-0.041
		c-0.846-0.012-1.021,0.295-1.009,1.056C658.516,30.907,658.492,33.241,658.492,35.576z"/>
	<path fill="#414F6D" d="M385.57,14.442c0.396,0,0.729,0,1.061,0c9.038,0,18.078-0.008,27.117,0.002
		c10.344,0.011,18.331,6.689,20.194,16.865c1.688,9.232-2.828,18.277-10.946,21.904c-0.705,0.316-1.438,0.58-2.348,0.945
		c6.254,9.2,12.473,18.348,18.78,27.633c-0.489,0.025-0.813,0.057-1.134,0.057c-4.771,0.002-9.548-0.017-14.321,0.021
		c-0.776,0.006-1.196-0.254-1.606-0.903c-5.146-8.115-10.328-16.203-15.474-24.318c-0.418-0.658-0.851-0.913-1.62-0.883
		c-1.617,0.061-3.238,0.019-4.979,0.019c0,8.7,0,17.312,0,25.994c-4.974,0-9.823,0-14.724,0
		C385.57,59.342,385.57,36.974,385.57,14.442z M400.274,27.604c0,5.218-0.01,10.323,0.021,15.427
		c0.002,0.201,0.385,0.574,0.588,0.574c4.092-0.005,8.195,0.14,12.271-0.146c4.313-0.303,7.265-3.952,7.047-8.185
		c-0.229-4.397-3.485-7.642-7.849-7.711c-3.756-0.061-7.514-0.022-11.268-0.024C400.86,27.539,400.631,27.574,400.274,27.604z"/>
	<path fill="#414F6D" d="M235.565,54.195c6.245,9.185,12.452,18.314,18.756,27.586c-0.515,0.03-0.838,0.066-1.161,0.066
		c-4.773,0.003-9.547-0.014-14.321,0.019c-0.731,0.005-1.15-0.228-1.542-0.848c-5.146-8.113-10.328-16.204-15.476-24.315
		c-0.424-0.669-0.871-0.979-1.694-0.942c-1.586,0.072-3.177,0.021-4.893,0.021c0,8.666,0,17.274,0,25.975c-4.974,0-9.82,0-14.731,0
		c0-22.424,0-44.814,0-67.274c0.274-0.016,0.501-0.04,0.73-0.04c9.276-0.002,18.553-0.042,27.829,0.01
		c10.174,0.057,18.36,7.206,19.838,17.267c1.517,10.333-3.995,19.413-13,22.27C235.839,54.01,235.787,54.059,235.565,54.195z
		 M215.239,43.511c0.207,0.046,0.366,0.113,0.526,0.113c3.82,0.004,7.647,0.135,11.46-0.035c4.811-0.213,7.979-3.646,7.84-8.185
		c-0.142-4.65-3.44-7.802-8.291-7.857c-3.583-0.041-7.167-0.012-10.751-0.008c-0.257,0-0.514,0.055-0.784,0.086
		C215.239,32.958,215.239,38.22,215.239,43.511z"/>
	<path fill="#414F6D" d="M445.463,14.473c4.937,0,9.734,0,14.69,0c0,0.458,0,0.886,0,1.313c0,13.709,0.113,27.421-0.046,41.129
		c-0.092,7.411,5.814,12.609,12.688,12.784c3.584,0.092,6.842-0.81,9.615-3.127c2.805-2.345,4.262-5.377,4.266-9.05
		c0.01-13.879,0.005-27.758,0.005-41.637c0-0.435,0-0.87,0-1.373c4.928,0,9.776,0,14.751,0c0,0.451,0,0.88,0,1.309
		c0,14.455-0.069,28.91,0.028,43.363c0.058,8.249-3.592,14.327-10.332,18.714c-4.667,3.038-9.88,4.444-15.413,4.787
		c-6.421,0.398-12.545-0.67-18.229-3.744c-5.44-2.942-9.521-7.139-11.28-13.213c-0.49-1.697-0.749-3.521-0.759-5.29
		c-0.06-14.962-0.031-29.924-0.029-44.886C445.416,15.221,445.444,14.89,445.463,14.473z"/>
	<path fill="#414F6D" d="M363.165,57.727c4.231,2.192,8.397,4.351,12.56,6.506c-5.534,11.567-19.396,20.115-34.575,18.319
		c-17.214-2.037-30.503-16.535-30.574-34.276c-0.068-16.888,12.373-31.622,28.754-34.238c17.656-2.82,31.387,7.516,36.396,18.066
		c-4.157,2.154-8.317,4.309-12.561,6.505c-4.096-7.076-10.217-10.675-18.35-10.617c-5.682,0.041-10.57,2.137-14.44,6.341
		c-7.902,8.584-6.825,22.527,2.219,29.755C341.51,71.214,356.784,69.639,363.165,57.727z"/>
	<path fill="#414F6D" d="M398.236,104.684c-8.718,0-17.366,0-26.114,0c-0.024,0.444-0.061,0.772-0.061,1.101
		c-0.004,4.131,0.02,8.26-0.021,12.389c-0.009,0.847,0.248,1.092,1.09,1.086c6.702-0.027,13.404-0.018,20.108-0.018
		c0.397,0,0.798,0,1.26,0c0,4.409,0,8.721,0,13.151c-0.438,0-0.832,0-1.229,0c-6.67,0-13.338,0.021-20.008-0.021
		c-0.998-0.008-1.239,0.303-1.228,1.262c0.049,4.027,0.021,8.057,0.021,12.084c0,0.365,0,0.73,0,1.184
		c0.573,0.028,1.037,0.07,1.5,0.07c7.787,0.006,15.574,0.004,23.358,0.006c1.382,0,1.382,0.002,1.383,1.387
		c0.002,3.52,0,7.04,0,10.561c0,0.367,0,0.732,0,1.175c-13.771,0-27.427,0-41.155,0c0-22.824,0-45.624,0-68.521
		c13.664,0,27.344,0,41.092,0C398.236,95.933,398.236,100.246,398.236,104.684z"/>
	<path fill="#414F6D" d="M275.987,54.576c0,4.865,0,9.523,0,14.297c8.552,0,17.061,0,25.651,0c0,4.354,0,8.593,0,12.905
		c-13.45,0-26.87,0-40.37,0c0-22.4,0-44.788,0-67.256c13.424,0,26.871,0,40.384,0c0,4.248,0,8.49,0,12.858
		c-8.551,0-17.061,0-25.64,0c0,4.806,0,9.487,0,14.255c7.264,0,14.494,0,21.831,0c0,4.322,0,8.56,0,12.94
		C290.616,54.576,283.362,54.576,275.987,54.576z"/>
	<path fill="#414F6D" d="M632.365,68.873c0,4.41,0,8.626,0,12.91c-13.479,0-26.902,0-40.396,0c0-22.427,0-44.819,0-67.276
		c13.44,0,26.867,0,40.373,0c0,4.229,0,8.473,0,12.851c-8.508,0-17.018,0-25.605,0c0,4.813,0,9.494,0,14.298
		c7.269,0,14.523,0,21.857,0c0.033,0.442,0.078,0.769,0.078,1.096c0.005,3.588-0.025,7.177,0.023,10.766
		c0.014,0.921-0.293,1.123-1.161,1.119c-6.468-0.034-12.938-0.019-19.401-0.019c-0.435,0-0.867,0-1.393,0c0,4.774,0,9.454,0,14.255
		C615.249,68.873,623.759,68.873,632.365,68.873z"/>
	<path fill="#414F6D" d="M350.202,104.773c-0.587,0-0.986,0-1.386,0c-4.908,0-9.816,0.025-14.724-0.021
		c-0.993-0.01-1.236,0.306-1.235,1.264c0.025,17.529,0.02,35.063,0.02,52.597c0,0.472,0,0.938,0,1.481c-4.953,0-9.809,0-14.78,0
		c-0.023-0.459-0.068-0.916-0.068-1.368c-0.003-17.499-0.003-34.998-0.003-52.496c0-1.451-0.002-1.453-1.409-1.453
		c-4.908,0-9.815,0-14.723,0c-0.397,0-0.793,0-1.243,0c0-4.467,0-8.813,0-13.237c0.412-0.021,0.776-0.055,1.141-0.055
		c15.704-0.003,31.408,0.008,47.113-0.021c1.011-0.002,1.342,0.24,1.322,1.291c-0.063,3.586-0.023,7.176-0.023,10.763
		C350.202,103.878,350.202,104.244,350.202,104.773z"/>
	<path fill="#414F6D" d="M553.501,81.85c0-18.174,0-36.168,0-54.297c-5.701,0-11.327,0-17.011,0c0-4.417,0-8.699,0-13.045
		c16.188,0,32.348,0,48.574,0c0,4.299,0,8.581,0,13.001c-5.584,0-11.185,0-16.925,0c0,0.634,0,1.133,0,1.631
		c0,17.092,0,34.183,0,51.274c0,1.435-0.002,1.436-1.42,1.436c-3.959,0-7.919,0-11.879,0C554.444,81.85,554.045,81.85,553.501,81.85
		z"/>
	<path fill="#414F6D" d="M424.885,91.559c0,0.563,0,1.034,0,1.504c0,17.362,0,34.726,0.004,52.088c0,1.961-0.19,1.705,1.755,1.707
		c6.637,0.011,13.27,0.024,19.9-0.021c0.967-0.008,1.189,0.308,1.181,1.205c-0.041,3.652-0.035,7.312-0.004,10.965
		c0.013,0.832-0.153,1.188-1.104,1.185c-11.912-0.03-23.826-0.021-35.739-0.022c-0.296,0-0.593-0.039-0.933-0.063
		c0-22.867,0-45.667,0-68.547C414.877,91.559,419.801,91.559,424.885,91.559z"/>
	<path fill="#414F6D" d="M118.148,103.332c0-10.397,0.017-20.797-0.024-31.199c-0.005-1.152,0.313-1.496,1.479-1.488
		c7.199,0.05,14.399,0.05,21.598,0c1.169-0.008,1.477,0.343,1.475,1.491c-0.032,20.798-0.032,41.597,0,62.397
		c0.001,1.151-0.316,1.496-1.478,1.488c-7.2-0.049-14.399-0.05-21.599,0c-1.165,0.008-1.48-0.344-1.476-1.49
		C118.166,124.13,118.148,113.73,118.148,103.332z"/>
	<path fill="#414F6D" d="M215.769,91.544c0,22.886,0,45.688,0,68.572c-0.37,0.021-0.699,0.053-1.029,0.053
		c-4.265,0.002-8.531-0.021-12.795,0.02c-0.863,0.01-1.166-0.184-1.165-1.109c0.026-22.172,0.024-44.345,0.004-66.517
		c0-0.826,0.215-1.108,1.076-1.101c4.298,0.039,8.598,0.017,12.897,0.02C215.086,91.481,215.417,91.521,215.769,91.544z"/>
	<path fill="#414F6D" d="M527.781,14.496c0,22.416,0,44.782,0,67.277c-0.299,0.024-0.621,0.073-0.94,0.073
		c-4.197,0.005-8.396-0.015-12.595,0.02c-0.794,0.006-1.038-0.226-1.036-1.029c0.019-21.802,0.015-43.605,0.017-65.408
		c0-0.295,0.049-0.59,0.073-0.933C518.151,14.496,522.938,14.496,527.781,14.496z"/>
	<path fill="#EB9B36" d="M130.339,60.37c-3.636,0-7.273-0.03-10.909,0.02c-0.993,0.014-1.307-0.293-1.301-1.294
		c0.039-6.194,0.042-12.388-0.002-18.582c-0.008-1.058,0.32-1.371,1.366-1.365c7.273,0.038,14.546,0.038,21.819,0
		c1.051-0.005,1.37,0.316,1.362,1.37c-0.043,6.194-0.041,12.388-0.001,18.582c0.006,1.006-0.317,1.302-1.304,1.289
		C137.692,60.34,134.016,60.37,130.339,60.37z"/>
</g>
<path fill="#414F6D" d="M173,173.88H0v-174h173V173.88z M16,157.88h141v-142H16V157.88z"/>
<text transform="matrix(1 0 0 1 445.7246 160.0933)" display="none" fill="#EB9B36" font-family="'BrushScriptMT'" font-size="116">Invoice</text>
<g>
	<path fill="#EB9B36" d="M466.398,161.736l-3.512-2.549c-0.529-0.453-0.793-0.925-0.793-1.416c0-0.49,0.887-2.189,2.662-5.098
		c1.283-2.076,3.011-4.928,5.183-8.553c2.171-3.625,3.917-6.607,5.239-8.949c1.321-2.341,2.936-5.409,4.843-9.204
		c1.906-3.795,3.653-7.505,5.239-11.13c3.662-8.345,5.494-13.669,5.494-15.973c0-2.719-1.058-4.078-3.172-4.078
		c-1.586,0-3.843,0.803-6.769,2.407c-2.927,1.605-5.957,3.71-9.091,6.315c-3.135,2.605-5.74,5.324-7.816,8.156
		c-2.077,2.832-3.115,5.324-3.115,7.477c0,0.34,0.094,0.595,0.283,0.765c0.188,0.17,0.528,0.255,1.02,0.255
		c0.906,0,2.379-0.528,4.418-1.586c0.906-0.453,1.359-0.377,1.359,0.227c0,0.604-1.436,2.162-4.305,4.673
		c-2.87,2.512-4.984,3.767-6.344,3.767c-1.171,0-2.804-1.01-4.899-3.03c-2.096-2.02-3.144-3.86-3.144-5.522
		c0-0.642,0.585-2.171,1.756-4.588c1.17-2.416,2.775-5.145,4.814-8.185c2.039-3.039,4.191-5.673,6.457-7.901
		c2.605-2.605,5.579-4.928,8.921-6.967s6.551-3.625,9.629-4.758c3.077-1.133,5.56-1.699,7.448-1.699
		c2.719,0,4.843,1.029,6.372,3.087c1.529,2.059,2.294,4.938,2.294,8.638c0,4.909-1.926,12.008-5.777,21.297
		s-9.78,20.164-17.785,32.625c0.113,0.378,0.245,0.784,0.396,1.218c0.15,0.435,0.227,0.841,0.227,1.218
		c0,0.076-0.057,0.218-0.17,0.425c-0.113,0.208-0.246,0.425-0.396,0.651c-0.151,0.227-0.246,0.378-0.283,0.453L468.947,161
		c-0.453,0.793-0.926,1.189-1.416,1.189C467.078,162.189,466.7,162.038,466.398,161.736z"/>
	<path fill="#EB9B36" d="M529.836,132c-6.646,7.401-9.969,12.556-9.969,15.463c0,1.624,0.66,2.436,1.982,2.436
		c1.095,0,2.521-0.575,4.276-1.728c1.756-1.151,4.503-3.2,8.241-6.146v3.908c-5.362,5.287-9.479,9.101-12.348,11.441
		c-2.87,2.342-5.211,3.512-7.023,3.512c-3.097,0-4.645-2.039-4.645-6.117c0-1.208,0.188-2.397,0.566-3.568
		c0.377-1.17,0.896-2.388,1.558-3.653c0.66-1.265,1.671-3.077,3.03-5.438c1.359-2.359,2.926-5.031,4.701-8.015
		c-2.152,1.096-4.853,3.267-8.1,6.514c-2.115,2.039-3.908,3.975-5.381,5.806c-1.473,1.832-3.05,3.871-4.729,6.117
		c-1.681,2.247-2.908,3.758-3.682,4.531c-0.774,0.774-1.558,1.161-2.351,1.161c-1.209,0-2.322-1.265-3.342-3.795
		c-1.02-2.529-1.529-5.475-1.529-8.836c0-2.076,0.235-3.7,0.708-4.871c0.472-1.17,1.406-2.832,2.804-4.984
		c2.605-4.002,4.852-6.938,6.74-8.808c1.888-1.869,3.7-2.804,5.438-2.804c1.208,0,2.181,0.208,2.917,0.623
		c0.736,0.416,1.104,1.058,1.104,1.926c0,0.378-0.113,0.774-0.34,1.189c-0.227,0.416-0.481,0.793-0.765,1.133
		s-0.878,1.001-1.784,1.982c-5.967,6.608-8.949,10.895-8.949,12.857c0,1.096,0.358,1.643,1.076,1.643
		c0.453,0,1.331-0.727,2.634-2.181c1.303-1.453,2.982-3.36,5.041-5.721c2.058-2.359,4.493-4.823,7.307-7.392
		c2.813-2.567,6.013-5.041,9.601-7.42c2.001-1.396,3.662-2.096,4.984-2.096c0.604,0,1.198,0.831,1.784,2.492
		c0.585,1.662,0.878,3.342,0.878,5.041C532.271,129.036,531.459,130.3,529.836,132z"/>
	<path fill="#EB9B36" d="M541.447,142.365l-1.02,4.758c-0.151,0.604-0.227,1.284-0.227,2.039c0,2.039,0.85,3.059,2.549,3.059
		c1.623,0,5.569-3.172,11.838-9.516c0.037-2.454,0.953-5.286,2.747-8.496c1.793-3.209,3.775-6.022,5.947-8.439
		c2.171-2.416,3.785-3.625,4.843-3.625c1.661,0,2.492,1.096,2.492,3.285c0,1.322-0.321,2.937-0.963,4.843
		c-0.643,1.907-1.586,3.965-2.832,6.174s-2.775,4.484-4.588,6.825c0.943,1.699,1.906,2.549,2.889,2.549
		c0.83,0,1.746-0.292,2.747-0.878c1-0.585,2.256-1.481,3.767-2.69v3.795c-2.115,1.662-3.786,2.795-5.013,3.398
		c-1.228,0.604-2.804,0.906-4.729,0.906c-0.756,0-2.115-0.51-4.078-1.529c-3.852,4.078-6.986,7.128-9.402,9.147
		c-2.417,2.021-4.381,3.03-5.891,3.03c-2.605,0-4.824-1.558-6.655-4.673c-1.832-3.115-2.747-6.542-2.747-10.28
		c0-5.021,2.832-11.045,8.496-18.068c1.699-2.114,3.067-3.559,4.106-4.333c1.038-0.773,2.218-1.161,3.54-1.161
		c1.133,0,2.209,0.208,3.229,0.623c1.02,0.416,1.529,0.906,1.529,1.473c0,1.889-1.266,4.654-3.795,8.298
		C547.696,136.522,544.77,139.684,541.447,142.365z"/>
	<path fill="#EB9B36" d="M607.943,142.138v3.795c-2.492,2.266-4.494,3.776-6.004,4.531c-1.511,0.756-3.682,1.058-6.514,0.906
		c-4.909,5.815-9.232,8.723-12.971,8.723c-2.115,0-4.041-0.698-5.777-2.096c-1.737-1.396-3.125-3.304-4.163-5.721
		c-1.039-2.416-1.558-5.116-1.558-8.1c0-2.416,0.802-5.098,2.407-8.043c1.604-2.945,3.682-5.692,6.23-8.241s5.276-4.606,8.185-6.174
		c2.907-1.566,5.607-2.351,8.1-2.351c1.774,0,3.172,0.274,4.191,0.821c1.02,0.548,1.529,1.313,1.529,2.294
		c0,0.756-0.435,1.624-1.303,2.605c1.435,0.303,2.416,0.803,2.945,1.501c0.528,0.699,0.793,1.974,0.793,3.823
		c0,1.813-0.425,4.098-1.274,6.854c-0.85,2.757-2.011,5.344-3.483,7.76l1.02,1.02h0.85c0.642,0,1.274-0.16,1.897-0.481
		c0.623-0.32,1.18-0.66,1.671-1.02C605.205,144.187,606.281,143.384,607.943,142.138z M596.275,127.242
		c-3.135,1.889-5.815,3.597-8.043,5.126c-2.229,1.529-4.116,3.078-5.664,4.645c-1.549,1.567-2.587,3.144-3.115,4.729
		c-0.944,4.229-1.416,6.514-1.416,6.854c0,2.492,1.736,3.738,5.211,3.738c1.623,0,4.342-1.396,8.156-4.191
		c-0.643-1.774-0.963-3.474-0.963-5.098c0-2.379,0.49-4.805,1.473-7.278C592.896,133.293,594.35,130.452,596.275,127.242z"/>
	<path fill="#EB9B36" d="M634.904,142.251v4.135c-3.663,4.721-7.08,8.279-10.252,10.677c-3.172,2.398-5.872,3.597-8.1,3.597
		c-3.097,0-5.4-1.623-6.91-4.871c-1.511-3.247-2.266-6.797-2.266-10.648c0-1.473,0.15-2.879,0.453-4.22
		c0.302-1.34,0.66-2.444,1.076-3.313c0.415-0.868,1.189-2.228,2.322-4.078c5.361-8.345,10.271-12.518,14.727-12.518
		c2.303,0,3.455,0.888,3.455,2.662c0,1.209-0.746,3.097-2.237,5.664c-1.492,2.568-2.823,4.399-3.993,5.494
		c-3.285,3.172-5.429,5.381-6.429,6.627c-1.001,1.246-1.501,2.662-1.501,4.248c0,1.359,0.51,2.492,1.529,3.398
		s2.341,1.359,3.965,1.359c1.774,0,3.729-0.651,5.862-1.954C628.739,147.208,631.506,145.122,634.904,142.251z M631.053,116.933
		c-0.944,0-1.841-0.358-2.69-1.076c-0.85-0.717-1.274-1.623-1.274-2.719c0-1.661,0.793-3.512,2.379-5.551s3.229-3.059,4.928-3.059
		c1.133,0,2.076,0.35,2.832,1.048c0.755,0.699,1.133,1.709,1.133,3.03c0,1.624-0.774,3.418-2.322,5.381
		C634.488,115.952,632.827,116.933,631.053,116.933z"/>
	<path fill="#EB9B36" d="M668.492,142.365v3.795c-4.041,3.965-7.335,7.043-9.884,9.232c-2.549,2.19-4.928,3.89-7.137,5.098
		s-4.371,1.813-6.485,1.813c-2.077,0-3.984-0.821-5.721-2.464c-1.737-1.643-3.097-3.795-4.078-6.457
		c-0.982-2.662-1.473-5.484-1.473-8.468c0-2.567,0.566-4.852,1.699-6.854c1.133-2.001,3.322-4.588,6.57-7.76
		c3.852-3.775,7.429-6.692,10.733-8.751c3.304-2.058,5.899-3.087,7.788-3.087c1.359,0,2.511,0.473,3.455,1.416
		c0.943,0.944,1.416,2.134,1.416,3.568c0,1.209-0.623,2.927-1.869,5.154c-1.246,2.229-2.644,4.163-4.191,5.806
		c-1.549,1.643-2.775,2.464-3.682,2.464c-0.982,0-1.473-0.528-1.473-1.586c0.037-0.302,0.065-0.585,0.085-0.85
		c0.019-0.264,0.028-0.528,0.028-0.793c0-0.453-0.161-0.708-0.481-0.765c-0.321-0.057-0.708,0.085-1.161,0.425
		c-3.776,2.644-6.363,4.503-7.76,5.579c-1.397,1.076-2.502,2.162-3.313,3.257c-0.813,1.096-1.218,2.247-1.218,3.455
		c0,2.229,0.717,4.041,2.152,5.438c1.435,1.397,3.304,2.096,5.607,2.096c2.379,0,5.239-0.915,8.581-2.747
		C660.024,148.548,663.961,145.876,668.492,142.365z"/>
	<path fill="#EB9B36" d="M677.328,144.291v1.416c0,2.229,0.547,3.965,1.643,5.211c1.095,1.246,2.529,1.869,4.305,1.869
		c1.85,0,3.767-0.434,5.749-1.303c1.982-0.868,3.955-2.02,5.919-3.455c1.963-1.435,4.361-3.36,7.193-5.777v3.455
		c-4.268,5.136-8.27,9.072-12.008,11.81s-7.533,4.106-11.385,4.106c-3.361,0-6.023-1.303-7.986-3.908
		c-1.964-2.605-2.945-6.174-2.945-10.705c0-3.965,0.925-7.562,2.775-10.79c1.85-3.229,4.871-6.636,9.063-10.224
		c2.869-2.454,5.721-4.305,8.553-5.551s5.361-1.869,7.59-1.869c1.774,0,3.181,0.406,4.22,1.218c1.038,0.813,1.558,2.03,1.558,3.653
		c0,2.379-0.888,4.749-2.662,7.108c-1.775,2.36-4.484,4.701-8.128,7.023C687.136,139.901,682.652,142.138,677.328,144.291z
		 M677.895,140.609c3.398-1.321,6.306-2.964,8.723-4.928c2.416-1.963,4.2-3.842,5.353-5.636c1.151-1.793,1.728-3.105,1.728-3.937
		c0-0.868-0.396-1.303-1.189-1.303c-0.68,0-1.784,0.435-3.313,1.303c-1.529,0.869-3.078,2.002-4.645,3.398
		c-1.567,1.397-2.974,3.04-4.22,4.928C679.084,136.324,678.271,138.381,677.895,140.609z"/>
</g>
</svg>
