<?xml version="1.0" encoding="utf-8"?>
<!-- Generator: Adobe Illustrator 16.0.0, SVG Export Plug-In . SVG Version: 6.00 Build 0)  -->
<!DOCTYPE svg PUBLIC "-//W3C//DTD SVG 1.1//EN" "http://www.w3.org/Graphics/SVG/1.1/DTD/svg11.dtd">
<svg version="1.1" id="Layer_1" xmlns="http://www.w3.org/2000/svg" xmlns:xlink="http://www.w3.org/1999/xlink" x="0px" y="0px"
	 width="713.574px" height="173.761px" viewBox="0 0 713.574 173.761" enable-background="new 0 0 713.574 173.761"
	 xml:space="preserve">
<metadata><?xpacket begin="﻿" id="W5M0MpCehiHzreSzNTczkc9d"?>
<x:xmpmeta xmlns:x="adobe:ns:meta/" x:xmptk="Adobe XMP Core 5.3-c011 66.145661, 2012/02/06-14:56:27        ">
   <rdf:RDF xmlns:rdf="http://www.w3.org/1999/02/22-rdf-syntax-ns#">
      <rdf:Description rdf:about=""
            xmlns:xmpMM="http://ns.adobe.com/xap/1.0/mm/"
            xmlns:stRef="http://ns.adobe.com/xap/1.0/sType/ResourceRef#"
            xmlns:stEvt="http://ns.adobe.com/xap/1.0/sType/ResourceEvent#">
         <xmpMM:DerivedFrom rdf:parseType="Resource">
            <stRef:instanceID>xmp.iid:2A7F2BA7AB2DE811BE78A053C6CC9028</stRef:instanceID>
            <stRef:documentID>xmp.did:2A7F2BA7AB2DE811BE78A053C6CC9028</stRef:documentID>
            <stRef:originalDocumentID>xmp.did:277F2BA7AB2DE811BE78A053C6CC9028</stRef:originalDocumentID>
         </xmpMM:DerivedFrom>
         <xmpMM:DocumentID>xmp.did:11DC95826F2EE811A3B1A19654B49B79</xmpMM:DocumentID>
         <xmpMM:InstanceID>xmp.iid:11DC95826F2EE811A3B1A19654B49B79</xmpMM:InstanceID>
         <xmpMM:OriginalDocumentID>xmp.did:277F2BA7AB2DE811BE78A053C6CC9028</xmpMM:OriginalDocumentID>
         <xmpMM:History>
            <rdf:Seq>
               <rdf:li rdf:parseType="Resource">
                  <stEvt:action>saved</stEvt:action>
                  <stEvt:instanceID>xmp.iid:277F2BA7AB2DE811BE78A053C6CC9028</stEvt:instanceID>
                  <stEvt:when>2018-03-22T16:33:10+08:00</stEvt:when>
                  <stEvt:softwareAgent>Adobe Illustrator CS6 (Windows)</stEvt:softwareAgent>
                  <stEvt:changed>/</stEvt:changed>
               </rdf:li>
               <rdf:li rdf:parseType="Resource">
                  <stEvt:action>saved</stEvt:action>
                  <stEvt:instanceID>xmp.iid:11DC95826F2EE811A3B1A19654B49B79</stEvt:instanceID>
                  <stEvt:when>2018-03-23T15:55:10+08:00</stEvt:when>
                  <stEvt:softwareAgent>Adobe Illustrator CS6 (Windows)</stEvt:softwareAgent>
                  <stEvt:changed>/</stEvt:changed>
               </rdf:li>
            </rdf:Seq>
         </xmpMM:History>
      </rdf:Description>
      <rdf:Description rdf:about=""
            xmlns:dc="http://purl.org/dc/elements/1.1/">
         <dc:format>image/svg+xml</dc:format>
      </rdf:Description>
      <rdf:Description rdf:about=""
            xmlns:xmp="http://ns.adobe.com/xap/1.0/"
            xmlns:xmpGImg="http://ns.adobe.com/xap/1.0/g/img/">
         <xmp:CreatorTool>Adobe Illustrator CS6 (Windows)</xmp:CreatorTool>
         <xmp:CreateDate>2018-03-23T15:55:09+08:00</xmp:CreateDate>
         <xmp:MetadataDate>2018-03-23T15:55:10+08:00</xmp:MetadataDate>
         <xmp:ModifyDate>2018-03-23T15:55:10+08:00</xmp:ModifyDate>
         <xmp:Thumbnails>
            <rdf:Alt>
               <rdf:li rdf:parseType="Resource">
                  <xmpGImg:width>256</xmpGImg:width>
                  <xmpGImg:height>64</xmpGImg:height>
                  <xmpGImg:format>JPEG</xmpGImg:format>
                  <xmpGImg:image>/9j/4AAQSkZJRgABAgEASABIAAD/7QAsUGhvdG9zaG9wIDMuMAA4QklNA+0AAAAAABAASAAAAAEA&#xA;AQBIAAAAAQAB/+4ADkFkb2JlAGTAAAAAAf/bAIQABgQEBAUEBgUFBgkGBQYJCwgGBggLDAoKCwoK&#xA;DBAMDAwMDAwQDA4PEA8ODBMTFBQTExwbGxscHx8fHx8fHx8fHwEHBwcNDA0YEBAYGhURFRofHx8f&#xA;Hx8fHx8fHx8fHx8fHx8fHx8fHx8fHx8fHx8fHx8fHx8fHx8fHx8fHx8fHx8f/8AAEQgAQAEAAwER&#xA;AAIRAQMRAf/EAaIAAAAHAQEBAQEAAAAAAAAAAAQFAwIGAQAHCAkKCwEAAgIDAQEBAQEAAAAAAAAA&#xA;AQACAwQFBgcICQoLEAACAQMDAgQCBgcDBAIGAnMBAgMRBAAFIRIxQVEGE2EicYEUMpGhBxWxQiPB&#xA;UtHhMxZi8CRygvElQzRTkqKyY3PCNUQnk6OzNhdUZHTD0uIIJoMJChgZhJRFRqS0VtNVKBry4/PE&#xA;1OT0ZXWFlaW1xdXl9WZ2hpamtsbW5vY3R1dnd4eXp7fH1+f3OEhYaHiImKi4yNjo+Ck5SVlpeYmZ&#xA;qbnJ2en5KjpKWmp6ipqqusra6voRAAICAQIDBQUEBQYECAMDbQEAAhEDBCESMUEFURNhIgZxgZEy&#xA;obHwFMHR4SNCFVJicvEzJDRDghaSUyWiY7LCB3PSNeJEgxdUkwgJChgZJjZFGidkdFU38qOzwygp&#xA;0+PzhJSktMTU5PRldYWVpbXF1eX1RlZmdoaWprbG1ub2R1dnd4eXp7fH1+f3OEhYaHiImKi4yNjo&#xA;+DlJWWl5iZmpucnZ6fkqOkpaanqKmqq6ytrq+v/aAAwDAQACEQMRAD8Ahmh6Hqmu6pBpWlQfWL+4&#xA;5ejDyROXBDI3xSFVFFUnc5spSAFlxgLZZ/yo780f+rL/ANPVp/1Wyvxo97LgLv8AlR35o/8AVl/6&#xA;erT/AKrY+NHvXgLv+VHfmj/1Zf8Ap6tP+q2PjR714C7/AJUd+aP/AFZf+nq0/wCq2PjR714C7/lR&#xA;35o/9WX/AKerT/qtj40e9eAu/wCVHfmj/wBWX/p6tP8Aqtj40e9eAsettKv9J83Wum6hF6F7a3kM&#xA;c8XJX4sJFNOSFlP0HJk2LY1u+0c1zkvPte/PHyXomsXek3sd4bqzcxymOJGTkBXYlx4+GWxwki2B&#xA;mAhLf/nIb8vJZkjdry3VjQzSQAovueDO33DD4El8QPQ7bU7G605dRtJluLKSP1Y5oiGVkArUEZVT&#xA;O3m//QxfkD/fd/8A8iU/6qZd4EmHiBG6N+evknV9WtNLtI7wXN7KsEJkiQLyc0HIiQ7ZE4ZAWomH&#xA;oFzdW1rbyXNzKkFvCpeWaRgiKo3JZjQAZUAzeban/wA5Dfl/ZXJgh+uX6rUGa2hX06jwMzwk/QMu&#xA;GCTDxAnXlL83fJPme4W0s7pra/k/u7O7URSOfBCCyMfYNXIyxSikTBTfzh5w0nynpI1TVBK1s0qw&#xA;AQKHbk4JGxK7fDkYQMjQSTTCv+hi/IH++7//AJEp/wBVMt8CTHxAyfyf+ZvlHzZI8GlXTC8jXm1p&#xA;Ovpy8f5lG6sB34k0yueMx5pEgVHzp+aflnyffwWOrJctNcRevH6EauvHkV3JZd6rhhjMuSmQDJtK&#xA;1G31PS7PUrYMLe+gjuYQ4o3CVA68gCaGjZAijTIMS82/nB5T8raw2k6ml010qJITDGrpxcVG5df1&#xA;ZOOIyFhiZgJj52/MHQfJ0VpJq6zst6zrD6CK5rGATWrL/NghAy5KZUg9R/Nfyvp/lbTvMs6XJ07U&#xA;3MdsFjUycl5V5LzAH92e+EYiTS8Qq0g/6GL8gf77v/8AkSn/AFUyfgSR4gRujfnr5J1fVrTS7SO8&#xA;FzeyrBCZIkC8nNByIkO2ROGQFqJhZqv59eSNM1S8025jvTcWM8ltMUhQrzico3EmQVFVwjBIi1Mw&#xA;hf8AoYvyB/vu/wD+RKf9VMPgSXxAybzl+ZXl3yjFp8uqrcMupLI1v6CK5pEELcqstP70ZXDGZckm&#xA;VMZ/6GL8gf77v/8AkSn/AFUyzwJI8QM08p+d/Lfmu1e40W6E3pECeBgUljJ6ckbsabEbZVKBjzZA&#xA;gvmz8jv/ACaOi/8AR1/1CTZmZvpLTDm+jdd/MXyXoN+dP1bVEtbwKrmFkkY8W6GqKwzEjjJ5NxkA&#xA;l/8AyuT8s/8Aq+Rf8i5/+qeHwpdyOMImw/NT8vL+dYLfXbb1WICiUtCCT0AMoQYDjkOi8QZV13GQ&#xA;ZIDUde0nTZEjvblYXcclUhiSK0rsDmNm1eLEamab8WmyZBcRbena5pWpO6WVwszRgFwAwoD/AKwG&#xA;HDq8eUkQN0jLp54/qFPl3zx/5OK9/wC2pF/xJM20PocKXN9YZgt75V812FtqP53zafdKXtbzWLe3&#xA;nQEqTHLIiMKjcbHM6JqHwaD9TMvzd/KryF5d8oy6nppey1GOSNbeF5mf1+bqrpxkLH4UJf4fDK8W&#xA;WRNFlOIATT/nHu7vJfIus28pLWtvPJ9WrWil4QzqD4Voae/vkc49QTj5PJvyu0fy1q3muOz8xuke&#xA;mGGVmaSb0F5qBx+Oq/ry/ISBs1xAvd7t5e/Lj8oYNYtbrRpIZtStXE9usV8ZmDRmvLgJGqB8sxpZ&#xA;J1u2iIYD/wA5Eecb251uPypayFbO0WOW8jXrJPIOaK1OoRCpA8T7DLcENrY5D0ZB5R/5x10NNLim&#xA;8yyzzalMoaS3gcRxQ134VALMw7mtPbvkJZzeyRj70h84f849ata6nayeUZWuLSZ6SC5kVJLZhuHL&#xA;gLyT5DkPfJwzit0HH3Mh/Oi01e0/KPTrXWLpb3Uobq3S5ukBCyMEk333JpSp7nfbIYSOPZM+TH/y&#xA;W/LXyd5n8q3eo63bNNcw3skCus0kYEawxOKhWA6u2+SzZDE7IhEEMOltLXy3+bkFp5buTdQWmo26&#xA;WkoYMW9QoHiLL9qhdoz45Zdw3Y8jsyj/AJyX/wCUs0v/AJgB/wAnpMhp+ScnN7d5C/5QXy5/2y7L&#xA;/qHTMaf1FtjyfPf/ADkF/wCTGm/5hYP+InMvB9LTk5sz/wCcnf8AeHy//wAZbn/iMeV6fqzyMg8i&#xA;+TtA81flP5ds9agaeCASTRqrvGQ/qyLWqEdmyE5mMzSYiw8i/OryjoflbzTa6fo0LQWstjHcOjO0&#xA;hMjTSoTVyT0QZkYZGQ3a5ii9p8qflB5Es00nWYLKRdQiSC6SQzykCXiGrxLU69sxpZZcmwQDwq/s&#xA;9MvfzhvrTVGVdOn124ju2Z/TURtdMGq9Rx271zKBPBt3NfV7HB+Vn5H3EyQQTW800hCxxR6iWZmP&#xA;QKokqTmP4k2zhixz/nJuNY4/K8aCioL1VHsBbgZPT9WORF+QPyj8gaz5A0/WNVhkS6uIpGuLsXDx&#xA;heMrryoTwFAvcYJ5ZCVBMYimDfk3NLYfmza2mnTG4tJXurZ5V2Etusbsrn2rGr5Zl3huwhzQn5Hf&#xA;+TR0X/o6/wCoSbDm+krDmzL85vy686a752k1DSdLe7s2t4UEyvEo5KCCKMynK8WSIjuynEksG/5U&#xA;3+Zf/Vjl/wCRkP8AzXlvix72PAWP6/5Y1/y/cpbazYy2U0g5RiQbMBsSrCqtT2OSjIHkxIp7T/zj&#xA;v55vrz6z5Wv5WmW1h+sadI5qyxqwR4qnsOYK+G/amY+eHVtxy6M38+aDq+o6jby2VsZo0h4swKih&#xA;5E03I8c5ftfSZcswYCxTvOzdTjxwIka3X+QtC1bTbu6kvbcwpJGqoSVNSGr2Jw9kaTJilIzFWEdp&#xA;aiGSIETbwPzx/wCTivf+2pF/xJM6yH0OhlzfWGYLe+TPP2mS6r+buoaXCypNf6lHbRu9eKtMyIC1&#xA;KmgLZnQNQtokN0n8xeUbryx5nGja8xjjR42kubcc+du53liDcOW1dj3FMlGXELCCKL6o8taFoGi+&#xA;TUs9BIfTmt2mjuK8mmMiV9Vm2qW/szClIk7t4FB8teQvJ0vm7zCmjR3S2bPE8vrMhkH7sVpxBXr8&#xA;8zZz4RbREW9y/Lr8k7ryj5lTWZNWS8VIpIvRWExn94KV5F26fLMbJm4hVNsYUXmX50W1xpH5rT6g&#xA;6Fo5jbXsHL9pURUIr/rxMMuw7xa5830roet6brmlW+qadMs1pcoHRgRUEjdWHZl6Edsw5Ag0W4G0&#xA;p81fmH5V8rXVnbaxd+lNeNRVRS5jSh/eSBfiVK7Vp1+RpKOMy5KZAML/AD9v7LUPy0tryxnjubSa&#xA;+haKeJg6MOEo2YbdcswCpMJ8niOneQta1HyZfea7QxyWWnzmC5txy9YKqI7SAUoVX1RXfxOZJmAa&#xA;a+Ha2e/8476B5W1DV7jULuRpNd06klpZtQRiNhx9cd3ZWNPBag7mlKs8iB5MsYDX/OS6sPNOlNT4&#xA;TY0B7VEz1/Xjp+S5Ob2n8u54Z/IXl14XEiDTrWMsu45Rwqjr81ZSDmPk+otseT56/Py5gn/Me7ET&#xA;hzDBBFLQ1o4SpX5jlmVgHpaZ82cf85O/7w+X/wDjLc/8RjyvT9WeRnf5N/8Aks9D/wCMUn/J+TKs&#xA;v1FlDk8f/wCclP8AlOrH/tlxf9RE+ZGn+lryc30LoH/HC07/AJhYf+Ta5iS5tofKOt6O2tfmvqek&#xA;LKIGvtbuYBMRyCl7lxWlRWmZwNQvyaCLL1Pyv/zj3eaL5i07V31uOZbG4jnMIt2Ut6bV419Q0rlE&#xA;s9iqbBjpB/8AOUH/AEzX/R9/2L4dN1RkeXal5C1qx8oad5rJSbTNQZk/d8i8LBiq+oCAKMVNCMvE&#xA;wTTAx2t7D/zjroHlf9FT65bSNPrtTbXayUH1dSeQEajtIADyPhTbfMfPI3XRsxgPNPyO/wDJo6L/&#xA;ANHX/UJNl2b6SwhzfWGYLewXXfzn8l6Hq1zpWpG6hvLVuMiegSNxUMpB3DA1GWxxSIsMTMB4/wDn&#xA;R+Zuh+bxp1ppEMhgsmeR7qZQjM0gA4ItSeIpvXqfll+HGY82ucrRP/OOGk3Fx5xu9SCn6tY2jK8n&#xA;b1JmARfpVXP0Y6g7UuMbsl/Pbz75t8u+YdPtNF1BrO3ltPVkREjbk5lZakurHooyGGAI3ZTkQrfk&#xA;P5581+Y9V1W31rUGvYoII5IldI14sXIJBRV7YM0ABssJEvNfPH/k4r3/ALakX/Eky6H0MJc31hmC&#xA;3vAdU/LrzpN+caa7HpbtpI1e2uTdc4+PopKjM9OXLYKe2ZQyDgryajE2z784/wAvG826As1hGG1v&#xA;T6vadFMqH7cJY0G/Va9/mcqxZOE+TKcbSj8n7Lz/AKTo955d8waXLFZLHI+m3LPGwRm+1CeLsaEn&#xA;ku22/tkspiTYRC+TyrS/yy/N/SbsXmmabdWd0FKiaGaJH4t1FRJ3y85IHmwESzDyjpP56x+aNLk1&#xA;d9ROlrcxm9Etyjp6QYc+SiQ1FPbK5GFbMgJW9N/Mj8udN866UkEr/VtRteTWN4BXiWG6OO6NQV7/&#xA;AMaceQxLOUbeFN+WP5w+W7qSPS47tVY0+s6ZclUkA7/AyP8A8EozJ8SB5tXCQmXlj8h/Oet6gLzz&#xA;M7afauwe4klkE13KO/EAvQnpVzt4HBLMBySIE83pP5s+Sry7/L2z0DyzYGUWlxD6NrGVXjFGjgmr&#xA;la7tvvU5Tin6rLOQ22Xfkh5V1jQ/J19puvWRtpbi+lk+ryFHDRPBElTxLChKsMc0gTYWAoPPr78r&#xA;vP3lLz7+lfJ9k15YQyetZsHjA9N/t28gZ1alKr7jfrloyRlGiw4SDs9K/Mb8vB598vWc3E6brdun&#xA;qWyzUIUyAGSCYpy2qPtLWhynHk4T5M5Rt49a+Tfzy8trLp+mRX0Ns5JIs5laIk9WXi3wk+OxzIM4&#xA;HmwqQT/8vvyJ1+bWYdX83AW9vDIJzZmQSzzuDyHqMpZVUndt6npt1yE8wqgmMO9lX59eUPMnmS00&#xA;ZNEsmvWtpJzOFZF4h1Tj9tl68TkMEwLtlMEsu/LHSdR0jyJpOnajCbe9t43WaFiCVJldhupI6HK8&#xA;huRITEbPNfzz8g+b/MPm20vdG017y1jsI4XlV41AkWaZitHZT0cZdhmAN2E4kl7PpEEsGk2UEq8Z&#xA;YreJJF2NGVACNvfMc820Pm/zJ+Wf5mN531bWNK0udQ+pXN1ZXccsStRp2eN1+MEbEHMuOSPCAWkx&#xA;Noj9C/8AORf+/NU/6S0/6qY3jWpMz/PPyZ5q8x23lwaRYvey2iXP1viyKVaQQca82WteDdMrwzAu&#xA;2UwSyvyX5RZvyvs/LPmC1KM9vLDd2zFSV5SuykFSRyFQwI6HK5y9VhkBtTzDyb5J/M3yJ51eey0y&#xA;TUNI9QwXTxPEFuLYts6qzgh1HxD326Vy+c4yiwAILE/yO/8AJo6L/wBHX/UJNk830ljDm+sMwW95&#xA;N+ff5f8A6Y0ceYrCOupaWh+tKo3ltRVm+Zi+0Pavtl+CdGmucer50sFsmvYFvneOzaRRcyRAM6xk&#xA;/EVU0BIHTMstT7G8k+XPLmg+X7e28vgNYTKJxc8ubTl1H71n7lhT28M185EndyAAHiX/ADkv/wAp&#xA;Zpf/ADAD/k9JmTp+TVk5q/8AzjL/AMd3Wv8AmFj/AOTmOo5BONifnj/ycV7/ANtSL/iSZOH0MZc3&#xA;1hmC3vnbzF5/85W/5uSaTDq08emjVIIBagjh6bOgK9OhBzLjAcF00mRtmH5/+afMOgWmivo19LYt&#xA;cSTiYxEDkFVONag9KnK8EQbtlM0lf5Kfm5fajfN5e8yXRnurg8tNvJKBmbvAxAHXqn3eGSzYq3Cw&#xA;l3vQ/wA0dTv9L8havf6fO1teQRoYZ0+0pMqKafQcpxi5BlI7PKvy882fmD5g8oecPRv7m+1i2Sx/&#xA;RlCpkRpJJPU4bDqqb5fkjEEMIkkFi+u+Z/zs0COKTWL3ULKOclYnl4gMyipFQD45OMYHkxJkFfR9&#xA;a/PfWbFb7S7jUbqzclUnTjxJU0NKgdDiRAc0gyT/APOTzt510HXNIs7LVLizL6Tby3UalRynMkqu&#xA;zbfaPEVpkMUIkH3pmSEptrj/AJyEubeK5gfU5IJkWSKQcKMjiqkfMHJfu0ep6JLqfnbS/wAkr2/1&#xA;ee4tvMkAYmeSnrKDchV6bfYOVVEz25M7PCg/+cffNnmPzB+nv0zfy331b6p6HqkHh6nrcqUA68Bh&#xA;zxAqkYyS9fzHbHYq7FXYq7FXYq7FXYq7FXYq7FXYq+T/AMjv/Jo6L/0df9Qk2Z2b6S0Q5vrDMFvc&#xA;QGBBFQdiD0IxV8o/nD5BPlPzKz2qU0bUS01iR0Q1/eQ/7Anb/JI98zsU+IebRONFmf8Azj/+Y3pS&#xA;Dyhqkv7uQltIlY7KxqXgr/lfaT3qO4yvPj6hlCXRL/8AnJf/AJSzS/8AmAH/ACekw6fkjJzV/wDn&#xA;GX/ju61/zCx/8nMdRyCcbE/PH/k4r3/tqRf8STJw+hjLm+sMwW98reaf/J4y/wDbYt/+TkeZ0fo+&#xA;DQfqZ3/zk7/vD5f/AOMtz/xGPKtP1Z5Hlt95L1Kw8maH5zsmdra7aRbl12a3niuZI42BG4VlQUPZ&#xA;vmMuE7JDXW1vULj8xYvN/wCS2uR3Tga5YQwpfR9PUX10CzKPBv2vBvoynw+GY7mfFcVL/nF//ppf&#xA;+jH/ALGMdT0XGjv+cmv+OFov/MVJ/wAm8Gn5lORkv5C/+S00/wD4y3P/ACebIZ/qTDk8u/5yU/5T&#xA;qx/7ZcX/AFET5fp/pYZOaM0n/nI6907SrLTxocUgs4IoBJ9YZeXpIE5U9M0rTAdPZ5pGR6J+YmqN&#xA;q35K3WqNGImv7C0ujEDyCGZopONaCtOVMpxip0ykfSw3/nF//ppf+jH/ALGMs1PRjje65jNrsVdi&#xA;rsVdirsVdirsVdirsVdirsVfJ/5Hf+TR0X/o6/6hJszs30lohzfWGYLe7FUr8xeWNC8x6f8Ao/Wr&#xA;Rby0DiRULOhDr0ZWjKsOvY5KMiOSCLY3D+Sn5ZwypNDo7RyxsHjkW7vAyspqCCJtiDk/Gl3o4Amv&#xA;mX8vPJ/ma6iutc0/63cQR+lE/rTx0SpalInQHc98jHIRySYgr/LHkDyj5Ynnn0Ow+py3ChJm9WaX&#xA;kqmoH713pv4YymZc1EQHzf54/wDJxXv/AG1Iv+JJmXD6GmXN9YZgt75W80/+Txl/7bFv/wAnI8zo&#xA;/R8Gg/Uzv/nJ3/eHy/8A8Zbn/iMeVafqzyMq/KHTbLU/yd03T76ITWl1HdxTRN0KtdzD6D4HtleU&#xA;1NMOTwPz75P1XyT5gudNMjmzukP1W4GwntmYHi1NqqVHIeIr4ZlQmJC2qQp6X/zi/wD9NL/0Y/8A&#xA;YxlOp6M8aO/5ya/44Wi/8xUn/JvBp+ZTkZL+Qv8A5LTT/wDjLc/8nmyGf6kw5PLv+clP+U6sf+2X&#xA;F/1ET5fp/pYZObLdC/MT8k7fQ9Ot7y2tjdw20MdwTp/I+osYD1b0zX4h1yuWOdshKKfefdb0TWvy&#xA;Z1S/0Rg2mNCkduAhiCiK4ROIQheIXjQbZGAInumRsPMPyM8/eWvKZ1oa3O8Avfq31cpG8gPo+ryr&#xA;wBp/eDLs0DKqYQkA9z8p/mH5U81z3EGi3TTy2yq8qvFJHRWNARzArvmNLGY820SBZJkEuxV2KuxV&#xA;2KuxV2KuxV2KuxV2KviHRtZ1PRdSh1LTJzbX0HL0Z1CkrzUo2zAjdWI6ZsiARRcYGmT/APK5PzL/&#xA;AOr5L/yLh/5oyHhR7mXGXf8AK5PzL/6vkv8AyLh/5ox8KPcvGXf8rk/Mv/q+S/8AIuH/AJox8KPc&#xA;vGXf8rk/Mv8A6vkv/IuH/mjHwo9y8Zd/yuT8y/8Aq+S/8i4f+aMfCj3Lxl3/ACuT8y/+r5L/AMi4&#xA;f+aMfCj3LxlJLPU77VPNlpqF/KZ7y5vIXnmIALN6i70UAZIigxvd9pZrnJYDqP5LeVb/AM1t5mlu&#xA;b5L5rmO7MSSRCH1IypAoYmahK7/FlozECmHALtNfPf5daJ50is4tUnuYVsmdojatGhJkCg8vUST+&#xA;XtkYZDHkmUbTPyr5asfLOgWuiWEkstpaep6bzlWkPqSNKeRRUX7TntglKzaQKQvnTyPoXm/TEsNW&#xA;VwIn9SC4hKrNG3Q8WZXFGGxBH8MMJmJ2UxtB+Q/y10LyV9e/RU91N+kPS9b608b09Hnx4+nHH/vw&#xA;1rhnkMuaIxpW89fl9o3nO0tbXVJrmGO0kaWM2rIpJYcTy5pJtghMx5LKNo7yj5V0/wAraHDo2nyT&#xA;S2sDOyPcFWkJkYualFQdT4YJS4jaQKSDzv8AlH5b846tFqep3N5DcQwLbKts8SpwV3cEh4pDWsh7&#xA;5KGUxFBBiCx7/oWvyL/y3ap/yNt/+qGT/MSY+GGWW/5a6FB5Gl8mJPdHS5eXKYvH9Y+KX1TRvT4f&#xA;a/yOmQ8Q8VsuHamJ/wDQtfkX/lu1T/kbb/8AVDJ/mJMfDDJ/Iv5W+XvJdzdXOlz3c0l2ixyfWnjY&#xA;BVPL4fTjj/HITyGXNlGNMxytk7FXYq7FXYq7FXYq7FXYq7FXYq//2Q==</xmpGImg:image>
               </rdf:li>
            </rdf:Alt>
         </xmp:Thumbnails>
      </rdf:Description>
      <rdf:Description rdf:about=""
            xmlns:xmpTPg="http://ns.adobe.com/xap/1.0/t/pg/"
            xmlns:stDim="http://ns.adobe.com/xap/1.0/sType/Dimensions#"
            xmlns:xmpG="http://ns.adobe.com/xap/1.0/g/">
         <xmpTPg:MaxPageSize rdf:parseType="Resource">
            <stDim:w>9.910753</stDim:w>
            <stDim:h>2.413350</stDim:h>
            <stDim:unit>Inches</stDim:unit>
         </xmpTPg:MaxPageSize>
         <xmpTPg:NPages>1</xmpTPg:NPages>
         <xmpTPg:HasVisibleTransparency>False</xmpTPg:HasVisibleTransparency>
         <xmpTPg:HasVisibleOverprint>False</xmpTPg:HasVisibleOverprint>
         <xmpTPg:PlateNames>
            <rdf:Seq>
               <rdf:li>Cyan</rdf:li>
               <rdf:li>Magenta</rdf:li>
               <rdf:li>Yellow</rdf:li>
               <rdf:li>Black</rdf:li>
            </rdf:Seq>
         </xmpTPg:PlateNames>
         <xmpTPg:SwatchGroups>
            <rdf:Seq>
               <rdf:li rdf:parseType="Resource">
                  <xmpG:groupName>Default Swatch Group</xmpG:groupName>
                  <xmpG:groupType>0</xmpG:groupType>
               </rdf:li>
            </rdf:Seq>
         </xmpTPg:SwatchGroups>
      </rdf:Description>
   </rdf:RDF>
</x:xmpmeta>
                                                                                                    
                                                                                                    
                                                                                                    
                                                                                                    
                                                                                                    
                                                                                                    
                                                                                                    
                                                                                                    
                                                                                                    
                                                                                                    
                                                                                                    
                                                                                                    
                                                                                                    
                                                                                                    
                                                                                                    
                                                                                                    
                                                                                                    
                                                                                                    
                                                                                                    
                                                                                                    
                           
<?xpacket end="w"?>
	</metadata>
<g>
	<path fill="#414F6D" d="M229.983,91.533c0.376-0.019,0.741-0.052,1.105-0.052c4.4-0.003,8.8,0.019,13.201-0.021
		c0.804-0.008,1.291,0.258,1.762,0.896c10.74,14.485,21.499,28.959,32.256,43.435c0.237,0.319,0.485,0.631,0.924,1.201
		c0-15.324,0-30.35,0-45.441c5.028,0,9.918,0,14.917,0c0.02,0.396,0.053,0.753,0.053,1.109c0.003,22.104-0.004,44.205,0.024,66.309
		c0.001,0.994-0.288,1.236-1.25,1.227c-4.399-0.05-8.8-0.044-13.2-0.002c-0.801,0.008-1.28-0.255-1.75-0.893
		c-10.718-14.545-21.457-29.073-32.193-43.606c-0.229-0.31-0.476-0.604-0.914-0.823c0,15.041,0,30.082,0,45.215
		c-5.018,0-9.936,0-14.936,0C229.983,137.262,229.983,114.44,229.983,91.533z"/>
	<path fill="#414F6D" d="M82.606,97.648c8.912,12.781,17.728,25.426,26.692,38.281c-0.581,0.029-0.95,0.063-1.319,0.063
		c-8.278,0.004-16.557-0.006-24.836,0.018c-0.833,0.003-1.388-0.192-1.87-0.951C69.987,117.272,58.675,99.505,47.37,81.733
		c-0.147-0.232-0.263-0.484-0.493-0.913c0.538-0.029,0.948-0.069,1.358-0.07c6.559-0.004,13.118,0.001,19.677-0.004
		c5.399-0.005,9.665-3.699,10.136-8.764c0.559-6.008-2.73-10.564-8.355-11.537c-0.585-0.101-1.195-0.073-1.794-0.073
		c-12.478-0.004-24.956-0.003-37.433-0.003c-1.607,0-1.61-0.001-1.61-1.546c-0.001-6.119,0.018-12.238-0.019-18.357
		c-0.006-0.985,0.292-1.318,1.292-1.316c14.357,0.031,28.717-0.136,43.071,0.092c10.367,0.164,18.316,5.062,23.828,13.787
		c3.542,5.606,5.051,11.876,4.521,18.433c-0.974,12.049-6.677,20.965-18.108,25.758C83.228,97.31,83.027,97.432,82.606,97.648z"/>
	<path fill="#414F6D" d="M658.512,81.797c-5.01,0-9.807,0-14.68,0c0-22.442,0-44.832,0-67.355c0.392,0,0.747,0,1.105,0
		c9.004,0,18.006-0.005,27.01,0.001c10.764,0.008,19.098,7.25,20.379,17.915c1.256,10.461-4.467,18.794-12.907,21.583
		c-0.126,0.041-0.245,0.099-0.526,0.213c6.258,9.201,12.478,18.352,18.793,27.641c-0.518,0.024-0.84,0.054-1.162,0.054
		c-4.74,0.002-9.479-0.016-14.219,0.019c-0.796,0.006-1.264-0.231-1.697-0.921c-5.086-8.028-10.229-16.022-15.299-24.06
		c-0.549-0.87-1.119-1.175-2.106-1.124c-1.513,0.08-3.033,0.021-4.688,0.021C658.512,64.49,658.512,73.099,658.512,81.797z
		 M658.492,35.576c0,2.368,0.018,4.737-0.01,7.105c-0.012,0.676,0.178,0.973,0.908,0.967c3.654-0.028,7.313,0.046,10.961-0.032
		c3.812-0.08,6.687-2.198,7.696-5.498c1.657-5.394-1.97-10.465-7.604-10.561c-3.651-0.062-7.309,0.008-10.961-0.041
		c-0.845-0.012-1.021,0.295-1.008,1.056C658.516,30.907,658.492,33.241,658.492,35.576z"/>
	<path fill="#414F6D" d="M385.57,14.442c0.396,0,0.729,0,1.061,0c9.038,0,18.078-0.008,27.117,0.002
		c10.344,0.011,18.331,6.689,20.194,16.865c1.688,9.232-2.828,18.277-10.946,21.904c-0.705,0.316-1.438,0.58-2.348,0.945
		c6.254,9.2,12.473,18.348,18.781,27.633c-0.49,0.025-0.813,0.057-1.134,0.057c-4.772,0.002-9.548-0.017-14.321,0.021
		c-0.777,0.006-1.197-0.254-1.607-0.903c-5.146-8.115-10.328-16.203-15.473-24.318c-0.418-0.658-0.851-0.913-1.621-0.883
		c-1.617,0.061-3.238,0.019-4.979,0.019c0,8.7,0,17.312,0,25.994c-4.974,0-9.823,0-14.724,0
		C385.57,59.342,385.57,36.974,385.57,14.442z M400.274,27.604c0,5.218-0.009,10.323,0.022,15.427
		c0.002,0.201,0.385,0.574,0.588,0.574c4.092-0.005,8.195,0.14,12.271-0.146c4.313-0.303,7.265-3.952,7.047-8.185
		c-0.229-4.397-3.485-7.642-7.848-7.711c-3.756-0.061-7.514-0.022-11.268-0.024C400.86,27.539,400.631,27.574,400.274,27.604z"/>
	<path fill="#414F6D" d="M235.565,54.195c6.245,9.185,12.452,18.314,18.756,27.586c-0.515,0.03-0.838,0.066-1.161,0.066
		c-4.773,0.003-9.547-0.014-14.321,0.019c-0.731,0.005-1.15-0.228-1.542-0.848c-5.146-8.113-10.328-16.204-15.476-24.315
		c-0.424-0.669-0.871-0.979-1.694-0.942c-1.586,0.072-3.177,0.021-4.893,0.021c0,8.666,0,17.274,0,25.975c-4.974,0-9.82,0-14.731,0
		c0-22.424,0-44.814,0-67.274c0.274-0.016,0.501-0.04,0.73-0.04c9.276-0.002,18.553-0.042,27.829,0.01
		c10.174,0.057,18.36,7.206,19.838,17.267c1.517,10.333-3.995,19.413-13,22.27C235.839,54.01,235.787,54.059,235.565,54.195z
		 M215.239,43.511c0.207,0.046,0.366,0.113,0.526,0.113c3.82,0.004,7.647,0.135,11.46-0.035c4.811-0.213,7.979-3.646,7.84-8.185
		c-0.142-4.65-3.44-7.802-8.291-7.857c-3.583-0.041-7.167-0.012-10.751-0.008c-0.257,0-0.514,0.055-0.784,0.086
		C215.239,32.958,215.239,38.22,215.239,43.511z"/>
	<path fill="#414F6D" d="M445.463,14.473c4.936,0,9.734,0,14.69,0c0,0.458,0,0.886,0,1.313c0,13.709,0.114,27.421-0.046,41.129
		c-0.091,7.411,5.815,12.609,12.688,12.784c3.584,0.092,6.842-0.81,9.615-3.127c2.805-2.345,4.262-5.377,4.266-9.05
		c0.01-13.879,0.005-27.758,0.005-41.637c0-0.435,0-0.87,0-1.373c4.927,0,9.776,0,14.751,0c0,0.451,0,0.88,0,1.309
		c0,14.455-0.07,28.91,0.028,43.363c0.058,8.249-3.592,14.327-10.332,18.714c-4.667,3.038-9.88,4.444-15.413,4.787
		c-6.421,0.398-12.545-0.67-18.229-3.744c-5.44-2.942-9.521-7.139-11.28-13.213c-0.49-1.697-0.749-3.521-0.759-5.29
		c-0.059-14.962-0.031-29.924-0.029-44.886C445.416,15.221,445.444,14.89,445.463,14.473z"/>
	<path fill="#414F6D" d="M363.165,57.727c4.231,2.192,8.397,4.351,12.56,6.506c-5.535,11.567-19.396,20.115-34.576,18.319
		c-17.213-2.037-30.503-16.535-30.574-34.276c-0.068-16.888,12.373-31.622,28.754-34.238c17.656-2.82,31.387,7.516,36.397,18.066
		c-4.158,2.154-8.318,4.309-12.561,6.505c-4.096-7.076-10.217-10.675-18.35-10.617c-5.681,0.041-10.57,2.137-14.44,6.341
		c-7.902,8.584-6.825,22.527,2.219,29.755C341.51,71.214,356.784,69.639,363.165,57.727z"/>
	<path fill="#414F6D" d="M398.236,104.684c-8.717,0-17.366,0-26.114,0c-0.024,0.444-0.06,0.772-0.06,1.101
		c-0.004,4.131,0.019,8.26-0.021,12.389c-0.009,0.846,0.248,1.091,1.09,1.086c6.702-0.028,13.404-0.018,20.108-0.018
		c0.398,0,0.798,0,1.26,0c0,4.409,0,8.721,0,13.151c-0.438,0-0.832,0-1.229,0c-6.67,0-13.338,0.021-20.008-0.021
		c-0.998-0.008-1.24,0.303-1.228,1.262c0.049,4.027,0.021,8.057,0.021,12.084c0,0.365,0,0.73,0,1.184
		c0.573,0.028,1.037,0.07,1.5,0.07c7.787,0.006,15.574,0.004,23.358,0.006c1.382,0,1.382,0.002,1.383,1.387
		c0.002,3.52,0,7.04,0,10.561c0,0.367,0,0.732,0,1.174c-13.771,0-27.427,0-41.155,0c0-22.824,0-45.624,0-68.521
		c13.664,0,27.343,0,41.091,0C398.236,95.933,398.236,100.246,398.236,104.684z"/>
	<path fill="#414F6D" d="M275.987,54.576c0,4.865,0,9.523,0,14.297c8.552,0,17.061,0,25.651,0c0,4.354,0,8.593,0,12.905
		c-13.45,0-26.87,0-40.37,0c0-22.4,0-44.788,0-67.256c13.424,0,26.871,0,40.384,0c0,4.248,0,8.49,0,12.858
		c-8.551,0-17.061,0-25.64,0c0,4.806,0,9.487,0,14.255c7.264,0,14.494,0,21.831,0c0,4.322,0,8.56,0,12.94
		C290.616,54.576,283.362,54.576,275.987,54.576z"/>
	<path fill="#414F6D" d="M632.365,68.873c0,4.41,0,8.626,0,12.91c-13.479,0-26.902,0-40.396,0c0-22.427,0-44.819,0-67.276
		c13.44,0,26.867,0,40.373,0c0,4.229,0,8.473,0,12.851c-8.508,0-17.018,0-25.606,0c0,4.813,0,9.494,0,14.298
		c7.269,0,14.524,0,21.858,0c0.033,0.442,0.078,0.769,0.078,1.096c0.005,3.588-0.025,7.177,0.023,10.766
		c0.014,0.921-0.293,1.123-1.161,1.119c-6.468-0.034-12.937-0.019-19.401-0.019c-0.435,0-0.867,0-1.393,0c0,4.774,0,9.454,0,14.255
		C615.249,68.873,623.759,68.873,632.365,68.873z"/>
	<path fill="#414F6D" d="M350.202,104.773c-0.587,0-0.986,0-1.386,0c-4.908,0-9.816,0.025-14.723-0.021
		c-0.993-0.01-1.237,0.305-1.236,1.263c0.026,17.53,0.02,35.063,0.02,52.597c0,0.471,0,0.938,0,1.482c-4.953,0-9.809,0-14.78,0
		c-0.024-0.459-0.069-0.916-0.069-1.369c-0.003-17.499-0.003-34.998-0.003-52.496c0-1.451-0.002-1.453-1.409-1.453
		c-4.908,0-9.815,0-14.723,0c-0.397,0-0.793,0-1.243,0c0-4.467,0-8.813,0-13.238c0.412-0.021,0.776-0.054,1.141-0.054
		c15.704-0.003,31.408,0.007,47.113-0.022c1.011-0.002,1.342,0.24,1.323,1.291c-0.064,3.586-0.024,7.176-0.024,10.763
		C350.202,103.878,350.202,104.244,350.202,104.773z"/>
	<path fill="#414F6D" d="M553.501,81.85c0-18.174,0-36.168,0-54.297c-5.701,0-11.327,0-17.011,0c0-4.417,0-8.699,0-13.045
		c16.188,0,32.348,0,48.574,0c0,4.299,0,8.581,0,13.001c-5.584,0-11.184,0-16.924,0c0,0.634,0,1.133,0,1.631
		c0,17.092,0,34.183,0,51.274c0,1.435-0.002,1.436-1.42,1.436c-3.959,0-7.919,0-11.879,0C554.444,81.85,554.045,81.85,553.501,81.85
		z"/>
	<path fill="#414F6D" d="M424.885,91.559c0,0.563,0,1.034,0,1.504c0,17.362,0,34.726,0.004,52.088c0,1.961-0.191,1.705,1.755,1.707
		c6.636,0.011,13.269,0.024,19.9-0.021c0.967-0.008,1.189,0.308,1.181,1.205c-0.041,3.653-0.036,7.312-0.004,10.965
		c0.012,0.832-0.154,1.188-1.105,1.185c-11.912-0.03-23.826-0.021-35.739-0.022c-0.296,0-0.593-0.039-0.933-0.063
		c0-22.867,0-45.667,0-68.547C414.877,91.559,419.801,91.559,424.885,91.559z"/>
	<path fill="#414F6D" d="M118.148,103.332c0-10.398,0.017-20.798-0.024-31.199c-0.005-1.152,0.313-1.496,1.479-1.488
		c7.199,0.05,14.399,0.05,21.598,0c1.169-0.008,1.477,0.343,1.475,1.491c-0.032,20.798-0.032,41.597,0,62.397
		c0.001,1.151-0.316,1.496-1.478,1.488c-7.2-0.049-14.399-0.05-21.599,0c-1.165,0.008-1.48-0.344-1.476-1.49
		C118.166,124.13,118.148,113.73,118.148,103.332z"/>
	<path fill="#414F6D" d="M215.769,91.544c0,22.886,0,45.688,0,68.572c-0.37,0.021-0.699,0.053-1.029,0.053
		c-4.265,0.002-8.531-0.021-12.795,0.02c-0.863,0.01-1.166-0.184-1.165-1.109c0.026-22.172,0.024-44.345,0.004-66.517
		c0-0.826,0.215-1.108,1.076-1.101c4.298,0.039,8.598,0.017,12.897,0.02C215.086,91.481,215.417,91.521,215.769,91.544z"/>
	<path fill="#414F6D" d="M527.781,14.496c0,22.416,0,44.782,0,67.277c-0.299,0.024-0.621,0.073-0.94,0.073
		c-4.197,0.005-8.396-0.015-12.595,0.02c-0.794,0.006-1.038-0.226-1.036-1.029c0.019-21.802,0.015-43.605,0.017-65.408
		c0-0.295,0.048-0.59,0.073-0.933C518.151,14.496,522.938,14.496,527.781,14.496z"/>
	<path fill="#EB9B36" d="M130.339,60.37c-3.636,0-7.273-0.03-10.909,0.02c-0.993,0.014-1.307-0.293-1.301-1.294
		c0.039-6.194,0.042-12.388-0.002-18.582c-0.008-1.058,0.32-1.371,1.366-1.365c7.273,0.038,14.546,0.038,21.819,0
		c1.051-0.005,1.37,0.316,1.362,1.37c-0.043,6.194-0.041,12.388-0.001,18.582c0.006,1.006-0.317,1.302-1.304,1.289
		C137.692,60.34,134.016,60.37,130.339,60.37z"/>
</g>
<path fill="#414F6D" d="M173,173.88H0v-174h173V173.88z M16,157.88h141v-142H16V157.88z"/>
</svg>
